<?xml version="1.0" encoding="utf-8"?>
<!-- Generator: Adobe Illustrator 25.2.0, SVG Export Plug-In . SVG Version: 6.00 Build 0)  -->
<svg version="1.1" xmlns="http://www.w3.org/2000/svg" xmlns:xlink="http://www.w3.org/1999/xlink" x="0px" y="0px"
	 viewBox="0 0 500 500" style="enable-background:new 0 0 500 500;" xml:space="preserve">
<g id="Background_Complete">
	<g>
		<rect y="382.4" style="fill:#EBEBEB;" width="500" height="0.25"/>
		<rect x="78.54" y="390.79" style="fill:#EBEBEB;" width="33.12" height="0.25"/>
		<rect x="133.33" y="398" style="fill:#EBEBEB;" width="30.17" height="0.25"/>
		<rect x="56.85" y="400.07" style="fill:#EBEBEB;" width="38.25" height="0.25"/>
		<rect x="434" y="399.53" style="fill:#EBEBEB;" width="15.9" height="0.25"/>
		<rect x="391.47" y="399.53" style="fill:#EBEBEB;" width="39.32" height="0.25"/>
		<rect x="250" y="390.66" style="fill:#EBEBEB;" width="30.33" height="0.25"/>
		<rect x="284.67" y="390.66" style="fill:#EBEBEB;" width="72.1" height="0.25"/>
		<path style="fill:#EBEBEB;" d="M237.01,337.8H43.92c-3.15,0-5.71-2.56-5.71-5.71V60.66c0-3.15,2.56-5.71,5.71-5.71h193.1
			c3.15,0,5.71,2.56,5.71,5.71v271.43C242.72,335.24,240.16,337.8,237.01,337.8z M43.92,55.2c-3.01,0-5.46,2.45-5.46,5.46v271.43
			c0,3.01,2.45,5.46,5.46,5.46h193.1c3.01,0,5.46-2.45,5.46-5.46V60.66c0-3.01-2.45-5.46-5.46-5.46H43.92z"/>
		<path style="fill:#EBEBEB;" d="M453.31,337.8h-193.1c-3.15,0-5.71-2.56-5.71-5.71V60.66c0-3.15,2.56-5.71,5.71-5.71h193.1
			c3.15,0,5.71,2.56,5.71,5.71v271.43C459.02,335.24,456.46,337.8,453.31,337.8z M260.21,55.2c-3.01,0-5.46,2.45-5.46,5.46v271.43
			c0,3.01,2.45,5.46,5.46,5.46h193.1c3.01,0,5.46-2.45,5.46-5.46V60.66c0-3.01-2.45-5.46-5.46-5.46H260.21z"/>
	</g>
	<g>
		<g>
			<rect x="264.62" y="266.21" style="fill:#E6E6E6;" width="28.77" height="116.19"/>
			<polygon style="fill:#F5F5F5;" points="281.43,382.4 293.39,382.4 293.39,362.36 268.89,362.36 			"/>
			<rect x="56.85" y="266.21" style="fill:#E6E6E6;" width="28.77" height="116.19"/>
			<rect x="75.18" y="266.21" style="fill:#F5F5F5;" width="218.21" height="109.29"/>
			<path style="fill:#EBEBEB;" d="M284.61,299.76H83.96v-23.9h200.65V299.76z M84.96,298.76h198.65v-21.9H84.96V298.76z"/>
			<polygon style="fill:#F5F5F5;" points="87.14,382.4 75.18,382.4 75.18,362.36 99.68,362.36 			"/>
			<path style="fill:#EBEBEB;" d="M284.61,365.85H83.96V308.9h200.65V365.85z M84.96,364.85h198.65V309.9H84.96V364.85z"/>
		</g>
		<g>
			<g>
				<g>
					<g>
						<rect x="180.49" y="78.52" style="fill:#E6E6E6;" width="227.38" height="157.46"/>
						<rect x="184.67" y="78.52" style="fill:#F5F5F5;" width="227.38" height="157.46"/>
						
							<rect x="227.58" y="51.07" transform="matrix(-1.836970e-16 1 -1 -1.836970e-16 455.611 -141.1044)" style="fill:#FFFFFF;" width="141.56" height="212.37"/>
						
							<rect x="332.18" y="155.67" transform="matrix(-1.836970e-16 1 -1 -1.836970e-16 560.2176 -245.7111)" style="fill:#E6E6E6;" width="141.56" height="3.16"/>
						<rect x="187.77" y="99.15" style="fill:#F5F5F5;" width="221.17" height="5.34"/>
					</g>
				</g>
			</g>
			<g style="opacity:0.5;">
				<rect x="399.35" y="73.26" style="fill:#F0F0F0;" width="8.98" height="174.89"/>
				<rect x="387.94" y="73.26" style="fill:#F0F0F0;" width="8.98" height="174.89"/>
				<rect x="376.53" y="73.26" style="fill:#F0F0F0;" width="8.98" height="174.89"/>
				<rect x="365.13" y="73.26" style="fill:#F0F0F0;" width="8.98" height="174.89"/>
				<rect x="353.72" y="73.26" style="fill:#F0F0F0;" width="8.98" height="174.89"/>
				<rect x="342.31" y="73.26" style="fill:#F0F0F0;" width="8.98" height="174.89"/>
				<rect x="330.91" y="73.26" style="fill:#F0F0F0;" width="8.98" height="174.89"/>
				<rect x="319.5" y="73.26" style="fill:#F0F0F0;" width="8.98" height="174.89"/>
				<rect x="308.09" y="73.26" style="fill:#F0F0F0;" width="8.98" height="174.89"/>
				<rect x="296.68" y="73.26" style="fill:#F0F0F0;" width="8.98" height="174.89"/>
				<rect x="285.28" y="73.26" style="fill:#F0F0F0;" width="8.98" height="174.89"/>
				<rect x="273.87" y="73.26" style="fill:#F0F0F0;" width="8.98" height="174.89"/>
				<rect x="262.46" y="73.26" style="fill:#F0F0F0;" width="8.98" height="174.89"/>
				<rect x="251.05" y="73.26" style="fill:#F0F0F0;" width="8.98" height="174.89"/>
				<rect x="239.65" y="73.26" style="fill:#F0F0F0;" width="8.98" height="174.89"/>
			</g>
		</g>
		<g>
			<rect x="62.35" y="97.33" style="fill:#F0F0F0;" width="65.9" height="119.84"/>
			<rect x="66.6" y="97.33" style="fill:#F5F5F5;" width="75.8" height="119.84"/>
			
				<rect x="47.42" y="122.44" transform="matrix(6.123234e-17 -1 1 6.123234e-17 -52.7521 261.7543)" style="fill:#FFFFFF;" width="114.16" height="69.62"/>
			<path style="fill:#F5F5F5;" d="M88.25,122.89v68.72c0,1.52,1.24,2.76,2.76,2.76H118c1.52,0,2.76-1.24,2.76-2.76v-68.72
				c0-1.52-1.24-2.76-2.76-2.76H91C89.48,120.14,88.25,121.37,88.25,122.89z"/>
		</g>
		<g>
			<g>
				<g>
					<path style="fill:#EBEBEB;" d="M383.91,197.29l13.48,33.22c-0.39,96.09,3.95,101.63,3.99,118.16h-34.03
						C366.13,268.24,378.06,286.32,383.91,197.29z"/>
				</g>
				<path style="fill:#EBEBEB;" d="M402.91,295.42c-27.39-75.41-90.44-52.05-87.62-24.57C318.11,298.33,418.66,338.79,402.91,295.42
					z"/>
				<path style="fill:#EBEBEB;" d="M392.55,338.9c-14.94-48.6-54.68-40.66-54.68-18.33C337.87,342.9,401.15,366.85,392.55,338.9z"/>
				<path style="fill:#EBEBEB;" d="M391.49,251.18c-23.46-64.96-81.89-56.02-77.18-28.61C319.01,249.98,404.98,288.54,391.49,251.18
					z"/>
				<path style="fill:#EBEBEB;" d="M391.65,222.05c2.17-44.26-41.65-62.47-38.62-36.03C356.07,212.47,390.4,247.5,391.65,222.05z"/>
				<path style="fill:#EBEBEB;" d="M388.38,267.36c9.26-54.54,65.42-75.28,59.15-44.41C441.25,253.82,383.05,298.73,388.38,267.36z"
					/>
				<path style="fill:#EBEBEB;" d="M383.65,236.53c-10.91-57.19,39.55-82.6,41.01-55.03S389.92,269.42,383.65,236.53z"/>
				<path style="fill:#EBEBEB;" d="M379.27,301.13c22.29-55.11,70.04-41.44,65.22-16.36C439.67,309.85,366.45,332.83,379.27,301.13z
					"/>
				<path style="fill:#EBEBEB;" d="M390.27,339.61c-0.5-35.56,31.78-44.75,32.16-24.15C422.81,336.06,390.56,360.06,390.27,339.61z"
					/>
			</g>
			<g>
				<path style="fill:#E0E0E0;" d="M380.41,382.65L380.41,382.65c-17.74,0-32.71-12.35-36.35-29.05c-0.96-4.42-2.06-8.8-3.79-12.98
					l-0.28-0.67h80.84l-0.28,0.67c-1.73,4.18-2.83,8.57-3.79,12.98C413.12,370.3,398.16,382.65,380.41,382.65z"/>
			</g>
		</g>
	</g>
</g>
<g id="Background_Simple" style="display:none;">
	<g style="display:inline;">
		<path style="fill:#407BFF;" d="M262.46,100.74c-32.8-2.48-59.42-14.07-94.71-5.81c-27.67,6.47-56.42,17.41-77.81,48.83
			c-20.38,29.94-30.95,64.7-18.67,93.6c12.13,28.56,42.29,47.16,69.41,48.87c14.45,0.91,29.28-4.92,44.16-8.21
			c16.42-3.63,30.51-0.98,44.69,4.63c24.9,9.84,47.95,22.2,78.11,7.4c29.55-14.49,49.57-47.39,69.22-79
			c17.97-28.9,49.87-65.81,43.01-101.06c-6.49-33.34-41.74-51.95-69.5-46.4C319.46,69.77,293.91,103.12,262.46,100.74z"/>
		<path style="opacity:0.9;fill:#FFFFFF;" d="M262.46,100.74c-32.8-2.48-59.42-14.07-94.71-5.81
			c-27.67,6.47-56.42,17.41-77.81,48.83c-20.38,29.94-30.95,64.7-18.67,93.6c12.13,28.56,42.29,47.16,69.41,48.87
			c14.45,0.91,29.28-4.92,44.16-8.21c16.42-3.63,30.51-0.98,44.69,4.63c24.9,9.84,47.95,22.2,78.11,7.4
			c29.55-14.49,49.57-47.39,69.22-79c17.97-28.9,49.87-65.81,43.01-101.06c-6.49-33.34-41.74-51.95-69.5-46.4
			C319.46,69.77,293.91,103.12,262.46,100.74z"/>
	</g>
</g>
<g id="Shadow_1_">
	<ellipse id="_x3C_Path_x3E__335_" style="fill:#F5F5F5;" cx="250" cy="416.24" rx="193.89" ry="11.32"/>
</g>
<g id="Cloud">
	<g>
		<path style="fill:#407BFF;" d="M129.37,213.94l-0.63-0.78c2.58-2.09,5.34-4.01,8.21-5.71l0.51,0.86
			C134.62,209.99,131.9,211.88,129.37,213.94z"/>
		<path style="fill:#407BFF;" d="M108.83,242.52l-0.94-0.35c3.39-9.07,8.81-17.49,15.67-24.35l0.71,0.71
			C117.52,225.29,112.18,233.59,108.83,242.52z"/>
		<path style="fill:#407BFF;" d="M302.57,286.59c-0.24-29.22-23.99-52.82-53.27-52.82c-7.05,0-13.78,1.38-19.94,3.87
			c-10.46-21.4-32.44-36.15-57.87-36.15c-30.75,0-56.45,21.57-62.84,50.39c-28.92,1.86-51.8,25.89-51.8,55.28
			c0,30.6,24.81,55.41,55.41,55.41h176.32c21.69,0,39.28-17.59,39.28-39.28C327.87,306.54,317.36,292.23,302.57,286.59z"/>
		<path style="fill:#263238;" d="M262.91,268.69h-141.1c-2.38,0-4.33-1.95-4.33-4.33l0,0c0-2.38,1.95-4.33,4.33-4.33h141.1
			c2.38,0,4.33,1.95,4.33,4.33l0,0C267.24,266.74,265.29,268.69,262.91,268.69z"/>
		<path style="fill:#FFFFFF;" d="M241.63,327.29h-98.53c-8.03,0-14.56-6.53-14.56-14.56c0-8.03,6.53-14.56,14.56-14.56h98.53
			c8.03,0,14.56,6.53,14.56,14.56C256.19,320.75,249.65,327.29,241.63,327.29z M143.09,299.17c-7.48,0-13.56,6.08-13.56,13.56
			c0,7.48,6.08,13.56,13.56,13.56h98.53c7.48,0,13.56-6.08,13.56-13.56c0-7.48-6.08-13.56-13.56-13.56H143.09z"/>
		<path style="fill:#FFFFFF;" d="M166.11,323.79h-23.01c-6.08,0-11.06-4.98-11.06-11.06l0,0c0-6.08,4.98-11.06,11.06-11.06h23.01
			c6.08,0,11.06,4.98,11.06,11.06l0,0C177.17,318.81,172.19,323.79,166.11,323.79z"/>
		<g>
			<polygon style="fill:#407BFF;" points="266.94,184.63 248.23,264.35 136.61,264.35 167.83,131.3 245.12,149.43 			"/>
			<polygon style="opacity:0.8;fill:#FAFAFA;" points="266.94,184.63 248.23,264.35 136.61,264.35 167.83,131.3 245.12,149.43 			
				"/>
			<g>
				<path style="fill:#407BFF;" d="M252.38,199.45l-84.78-19.89c-1.22-0.29-1.98-1.51-1.69-2.73l0,0c0.29-1.22,1.51-1.98,2.73-1.69
					l84.78,19.89c1.22,0.29,1.98,1.51,1.69,2.73l0,0C254.82,198.97,253.6,199.73,252.38,199.45z"/>
				<path style="fill:#407BFF;" d="M249.14,213.25l-84.78-19.89c-1.22-0.29-1.98-1.51-1.69-2.73l0,0c0.29-1.22,1.51-1.98,2.73-1.69
					l84.78,19.89c1.22,0.29,1.98,1.51,1.69,2.73l0,0C251.59,212.77,250.36,213.53,249.14,213.25z"/>
				<path style="fill:#407BFF;" d="M245.9,227.04l-84.78-19.89c-1.22-0.29-1.98-1.51-1.69-2.73l0,0c0.29-1.22,1.51-1.98,2.73-1.69
					l84.78,19.89c1.22,0.29,1.98,1.51,1.69,2.73l0,0C248.35,226.57,247.12,227.33,245.9,227.04z"/>
				<path style="fill:#407BFF;" d="M242.67,240.84l-84.78-19.89c-1.22-0.29-1.98-1.51-1.69-2.73l0,0c0.29-1.22,1.51-1.98,2.73-1.69
					l84.78,19.89c1.22,0.29,1.98,1.51,1.69,2.73l0,0C245.11,240.37,243.88,241.13,242.67,240.84z"/>
				<path style="fill:#407BFF;" d="M205.72,246.73l-51.08-11.98c-1.22-0.29-1.98-1.51-1.69-2.73l0,0c0.29-1.22,1.51-1.98,2.73-1.69
					l51.08,11.98c1.22,0.29,1.98,1.51,1.69,2.73h0C208.17,246.26,206.94,247.02,205.72,246.73z"/>
			</g>
			<polygon style="fill:#407BFF;" points="266.94,184.63 238.43,177.94 245.12,149.43 			"/>
		</g>
	</g>
</g>
<g id="Character_1_">
	<g>
		<g>
			<path style="fill:#263238;" d="M286.09,260.33l-23.7,155.9h4.68l3.14-20.63h60.38l-3.14,20.63h4.68l23.7-155.9H286.09z
				 M331.21,391.48h-60.38l3.36-22.12h60.38L331.21,391.48z M335.2,365.23h-60.38l3.36-22.12h60.38L335.2,365.23z M339.19,338.98
				h-60.38l3.36-22.12h60.38L339.19,338.98z M343.19,312.73h-60.38l3.36-22.12h60.38L343.19,312.73z M286.8,286.47l3.36-22.12h60.38
				l-3.36,22.12H286.8z"/>
			<g>
				<path style="fill:#263238;" d="M365.58,260.33h-69.74l23.7,155.9h4.68l-3.14-20.63h60.38l3.14,20.63h4.68L365.58,260.33z
					 M301.13,264.35h60.38l3.36,22.12h-60.38L301.13,264.35z M305.12,290.6h60.38l3.36,22.12h-60.38L305.12,290.6z M309.11,316.86
					h60.38l3.36,22.12h-60.38L309.11,316.86z M313.1,343.11h60.38l3.36,22.12h-60.38L313.1,343.11z M320.45,391.48l-3.36-22.12
					h60.38l3.36,22.12H320.45z"/>
				<path style="opacity:0.4;fill:#FFFFFF;" d="M365.58,260.33h-69.74l23.7,155.9h4.68l-3.14-20.63h60.38l3.14,20.63h4.68
					L365.58,260.33z M301.13,264.35h60.38l3.36,22.12h-60.38L301.13,264.35z M305.12,290.6h60.38l3.36,22.12h-60.38L305.12,290.6z
					 M309.11,316.86h60.38l3.36,22.12h-60.38L309.11,316.86z M313.1,343.11h60.38l3.36,22.12h-60.38L313.1,343.11z M320.45,391.48
					l-3.36-22.12h60.38l3.36,22.12H320.45z"/>
			</g>
		</g>
		<g>
			<path style="fill:#7F3E3B;" d="M335.7,108.58c2,1.54,3.76,3.09,5.59,4.68c1.81,1.58,3.56,3.24,5.28,4.94
				c3.44,3.39,6.72,6.99,9.76,10.92l1.12,1.51l0.56,0.75c0.32,0.44,0.62,0.93,0.85,1.39c0.96,1.88,1.25,3.62,1.38,5.18
				c0.21,3.11-0.26,5.74-0.85,8.26c-1.25,5.01-3.13,9.44-5.54,13.8l-5.11-2.08c0.97-4.35,1.84-8.91,2.17-13.12
				c0.16-2.09,0.14-4.16-0.18-5.71c-0.16-0.76-0.43-1.33-0.6-1.51c-0.04-0.05-0.07-0.05-0.1-0.08l-0.54-0.61l-1.07-1.23
				c-2.96-3.24-6.16-6.4-9.5-9.44c-3.3-3.05-6.8-6.1-10.16-8.93L335.7,108.58z"/>
			<path style="fill:#7F3E3B;" d="M350.76,155.85l-5.74,3.96l7.04,4.24c0,0,3.61-3.45,2.06-6.66L350.76,155.85z"/>
			<polygon style="fill:#7F3E3B;" points="342.15,166.42 347.45,169.39 352.05,164.04 345.01,159.8 			"/>
			<path style="fill:#263238;" d="M296.55,87.68c0.17,0.65-0.04,1.26-0.47,1.37c-0.42,0.11-0.9-0.33-1.07-0.97
				c-0.17-0.65,0.04-1.26,0.47-1.37C295.9,86.6,296.38,87.04,296.55,87.68z"/>
			<path style="fill:#630F0F;" d="M296.56,88.93c0,0-0.51,4.11-1.67,6.32c1.42,0.77,3.24-0.21,3.24-0.21L296.56,88.93z"/>
			<path style="fill:#263238;" d="M297.92,83.51c-0.08,0.02-0.16,0.02-0.24-0.01c-1.63-0.64-2.81,0.19-2.83,0.2
				c-0.18,0.13-0.42,0.08-0.55-0.09c-0.13-0.18-0.08-0.42,0.09-0.55c0.06-0.04,1.55-1.08,3.57-0.29c0.2,0.08,0.3,0.31,0.22,0.51
				C298.14,83.4,298.04,83.48,297.92,83.51z"/>
			<path style="fill:#7F3E3B;" d="M317.05,89.5c0.93,6.1,2.24,15.45,7.6,17.82c0,0,0.52,6.34-10.06,10.15
				c-11.64,4.19-7.64-3.78-7.64-3.78c5.81-3.8,3.95-8.46,1.25-12.49L317.05,89.5z"/>
			<path style="fill:#263238;" d="M325.65,106.04c0.03-1.91-1.95-5.22-3.92-5c-2.17,0.24-10.45,3.3-13.47,6.09
				c-3.02,2.79-0.88,7.68-0.88,7.68L325.65,106.04z"/>
			<path style="fill:#407BFF;" d="M389.5,337.2c-0.52,0.54-1.11,0.99-1.58,0.93c-0.19-0.02-0.45-0.14-0.59-0.58
				c-0.07-0.23-0.04-0.46,0.09-0.67c0.56-0.95,2.97-1.44,3.08-1.46c0.07-0.01,0.14,0.01,0.18,0.07c0.04,0.06,0.04,0.13,0.01,0.19
				C390.49,336.01,390.03,336.66,389.5,337.2z M387.86,336.89c-0.05,0.06-0.1,0.11-0.13,0.17c-0.08,0.13-0.1,0.26-0.05,0.39
				c0.1,0.31,0.25,0.33,0.3,0.34c0.51,0.06,1.56-1.01,2.19-1.93C389.44,336.04,388.32,336.41,387.86,336.89z"/>
			<path style="fill:#407BFF;" d="M390.66,335.71c-0.02,0.02-0.04,0.04-0.07,0.05c-0.83,0.26-3,0.2-3.48-0.48
				c-0.09-0.12-0.2-0.38,0.06-0.72c0.16-0.22,0.39-0.34,0.68-0.38c1.09-0.13,2.74,1.22,2.81,1.28c0.05,0.04,0.07,0.1,0.06,0.17
				C390.7,335.66,390.68,335.69,390.66,335.71z M387.49,334.71c-0.02,0.02-0.04,0.04-0.05,0.06c-0.14,0.18-0.08,0.27-0.05,0.3
				c0.28,0.4,1.81,0.58,2.75,0.43c-0.5-0.37-1.56-1.06-2.26-0.98C387.72,334.54,387.59,334.6,387.49,334.71z"/>
			<path style="fill:#407BFF;" d="M329.01,358.1c-0.94,0-1.85-0.13-2.16-0.55c-0.11-0.15-0.19-0.4,0.01-0.76
				c0.12-0.2,0.3-0.34,0.55-0.41c1.22-0.33,3.79,1.13,3.9,1.19c0.06,0.04,0.1,0.11,0.08,0.18c-0.01,0.07-0.07,0.13-0.14,0.14
				C330.8,357.99,329.89,358.1,329.01,358.1z M327.85,356.68c-0.12,0-0.24,0.01-0.34,0.04c-0.16,0.04-0.27,0.12-0.34,0.24
				c-0.12,0.22-0.08,0.32-0.03,0.38c0.34,0.47,2.2,0.49,3.56,0.29C330.02,357.29,328.7,356.68,327.85,356.68z"/>
			<path style="fill:#407BFF;" d="M331.23,357.9c-0.02,0-0.05-0.01-0.07-0.02c-0.89-0.4-2.64-1.99-2.51-2.82
				c0.03-0.19,0.17-0.44,0.65-0.49c0.35-0.04,0.68,0.06,0.96,0.3c0.93,0.77,1.13,2.75,1.14,2.83c0.01,0.06-0.02,0.12-0.07,0.16
				C331.3,357.89,331.27,357.9,331.23,357.9z M329.44,354.92c-0.03,0-0.07,0-0.1,0.01c-0.31,0.03-0.33,0.16-0.34,0.2
				c-0.08,0.5,1.11,1.75,2.02,2.29c-0.09-0.58-0.36-1.76-0.97-2.27C329.86,355,329.66,354.92,329.44,354.92z"/>
			<polygon style="fill:#7F3E3B;" points="339.31,357.73 331.96,357.73 331.23,340.71 338.58,340.71 			"/>
			<polygon style="fill:#7F3E3B;" points="398.17,332.81 391.38,335.28 382.74,320.04 389.54,317.57 			"/>
			<path style="fill:#263238;" d="M390.31,334.61l5.74-5.93c0.21-0.22,0.54-0.26,0.8-0.1l5.7,3.5c0.59,0.36,0.68,1.19,0.19,1.68
				c-2.04,2.04-3.13,2.92-5.66,5.53c-1.55,1.6-6.17,7.04-8.32,9.26c-2.1,2.17-4.62,0.39-3.94-0.71c3.05-4.93,4.89-9.62,4.98-12.06
				C389.82,335.34,390,334.92,390.31,334.61z"/>
			<path style="fill:#263238;" d="M332.01,356.88h8.02c0.3,0,0.56,0.21,0.63,0.5l1.45,6.53c0.15,0.68-0.36,1.32-1.06,1.31
				c-2.89-0.05-7.08-0.22-10.71-0.22c-4.25,0-6.11,0.23-11.1,0.23c-3.02,0-3.85-3.05-2.59-3.33c5.75-1.26,8.62-1.39,13.59-4.45
				C330.78,357.12,331.38,356.88,332.01,356.88z"/>
			<path style="fill:#7F3E3B;" d="M312.05,123.17c-1.13,2.85-2.33,5.5-3.57,8.22c-1.23,2.7-2.56,5.36-3.92,8.02
				c-2.78,5.29-5.75,10.5-9.45,15.56c-0.93,1.26-1.93,2.51-3.03,3.75c-0.55,0.63-1.11,1.21-1.77,1.86
				c-0.86,0.82-1.69,1.41-2.49,1.92c-1.6,1.01-3.12,1.67-4.63,2.29c-1.5,0.61-2.99,1.11-4.47,1.55c-5.92,1.74-11.74,2.75-17.75,3.3
				l-1.12-5.4c5.35-1.94,10.79-3.94,15.8-6.18c1.24-0.57,2.46-1.17,3.6-1.78c1.13-0.61,2.21-1.28,3.01-1.91
				c0.4-0.31,0.72-0.62,0.89-0.83c0.35-0.4,0.77-0.89,1.15-1.38c0.77-0.99,1.53-2.06,2.26-3.19c1.49-2.22,2.87-4.63,4.2-7.08
				c1.34-2.45,2.62-4.96,3.87-7.5c2.49-5.07,4.9-10.32,7.12-15.44L312.05,123.17z"/>
			<path style="fill:#407BFF;" d="M328.82,104.19c10.55-0.82,20.01,14.81,20.01,14.81l-7.58,12.3c0,0-8.12-2.99-14.98-8.93
				C319.08,116.14,321.62,104.76,328.82,104.19z"/>
			<path style="opacity:0.3;" d="M328.16,117.36l11.09,14.93l-0.5,0.61c0,0-3.82-3.04-8.23-7.34L328.16,117.36z"/>
			<path style="fill:#407BFF;" d="M299.59,115.84c-0.58,5.15,8.03,27.93,10.03,54.95l39.1-3.85c-0.28-5.18-3.14-26.97-8.31-51.63
				c-1.43-6.8-6.7-12.04-13.51-10.67c-0.06,0.01-0.13,0.03-0.19,0.04c-4.92,1.01-12,2.66-16.18,4.15c-3.55,1.26-6.86,2.88-8.76,3.88
				C300.56,113.33,299.74,114.5,299.59,115.84z"/>
			<path style="opacity:0.3;" d="M303.55,134.76c0.66,2.75,1.35,5.73,2.03,8.9c5.95-1.41,4.8-14.6,4.92-14.77L303.55,134.76z"/>
			<path style="fill:#407BFF;" d="M312.33,118.39c3,10.29-8.11,24.02-8.11,24.02l-11.18-7.2c0,0-0.08-9.42,3.5-16.79
				C301.07,109.08,310.19,111.05,312.33,118.39z"/>
			<path style="fill:#7F3E3B;" d="M260.04,163.29l-4.49-0.61l0.07,9.38c0,0,6.05,0.61,9.41-3.55l-0.66-1.77
				C263.67,164.89,262.01,163.56,260.04,163.29z"/>
			<polygon style="fill:#7F3E3B;" points="247.84,164.85 250.71,172.49 255.62,172.06 255.55,162.68 			"/>
			<g>
				<polygon style="opacity:0.2;" points="331.23,340.72 331.64,350.28 338.99,350.28 338.58,340.72 				"/>
				<polygon style="opacity:0.2;" points="389.54,317.57 382.74,320.04 387.52,328.48 394,325.42 				"/>
			</g>
			<path style="fill:#7F3E3B;" d="M317.76,80.78c1.55,8.07,2.86,12.71-0.1,17.81c-4.46,7.68-15.2,6.55-19.12-0.89
				c-3.53-6.7-5.47-18.77,1.49-23.92C306.89,68.71,316.22,72.72,317.76,80.78z"/>
			<path style="fill:#263238;" d="M304.17,86.17c-4.92,2.46-5.03-5.4-4.61-7.06c-1.85,1.77-4.35,3.56-8.89,1.6
				c-5.58-2.41-4-8.71,0-8.62c0,0-2.96-5.7,3.57-6.31c3.63-0.33,7.93,1.22,7.93,1.22s2.43-6.37,8.35-3.28
				c3.14,1.63,5.63,6.45,5.63,6.45s12.75,1.89,5.83,8.56c1.57,3.42,0.74,14.54-3.31,19.3C316.9,100.11,301.75,99.5,304.17,86.17z"/>
			<path style="fill:#263238;" d="M313.94,73.42c0,0,2.31-3.18,2.49-10.54C321.83,68.73,313.94,73.42,313.94,73.42z"/>
			<path style="fill:#7F3E3B;" d="M306.56,85.72c0.18,2.14-0.52,4.29-1.51,5.77c-1.5,2.23-3.54,1.27-4.21-1.08
				c-0.6-2.12-0.54-5.82,1.49-7.22C304.33,81.8,306.35,83.26,306.56,85.72z"/>
			<path style="fill:#263238;" d="M323.48,169.43c0,0,13.8,55.06,20.41,75.54c7.24,22.43,38.66,81.26,38.66,81.26l12.33-5.36
				c0,0-23.78-53.57-28.86-75.98c-5.51-24.33-17.32-77.94-17.32-77.94L323.48,169.43z"/>
			<path style="fill:#407BFF;" d="M378.91,322.17c-0.05,0.02,4.04,5.78,4.04,5.78l13.85-6.12l-2.8-5.73L378.91,322.17z"/>
			<path style="opacity:0.3;" d="M330.69,188.82c9.78,0.94,12.29,36.81,12.94,55.33c-4.05-12.73-10.56-37.36-15.08-54.86
				C329.16,188.91,329.87,188.74,330.69,188.82z"/>
			<path style="fill:#263238;" d="M309.61,170.79c0,0,1.59,56.52,4.58,78.74c3.11,23.11,14.61,97.03,14.61,97.03h12.44
				c0,0-2.87-74.62-4.56-97.45c-1.84-24.89-1.36-80.84-1.36-80.84L309.61,170.79z"/>
			<path style="fill:#407BFF;" d="M326.32,340.72c-0.06,0,0.99,7.53,0.99,7.53l15.13-0.52l0.14-7.02L326.32,340.72z"/>
		</g>
	</g>
</g>
</svg>
