<?xml version="1.0" encoding="utf-8"?>
<!-- Generator: Adobe Illustrator 25.2.0, SVG Export Plug-In . SVG Version: 6.00 Build 0)  -->
<svg version="1.1" xmlns="http://www.w3.org/2000/svg" xmlns:xlink="http://www.w3.org/1999/xlink" x="0px" y="0px"
	 viewBox="0 0 500 500" style="enable-background:new 0 0 500 500;" xml:space="preserve">
<style type="text/css">
	.st0{fill:#EBEBEB;}
	.st1{fill:#E6E6E6;}
	.st2{fill:#F0F0F0;}
	.st3{fill:#FAFAFA;}
	.st4{fill:#FFFFFF;}
	.st5{fill:#F5F5F5;}
	.st6{display:none;}
	.st7{display:inline;}
	.st8{fill:#407BFF;}
	.st9{opacity:0.9;fill:#FFFFFF;}
	.st10{fill:#FF8B7B;}
	.st11{fill:#263238;}
	.st12{opacity:0.2;}
	.st13{opacity:0.4;fill:#FFFFFF;}
	.st14{display:inline;opacity:0.2;fill:#263238;}
	.st15{display:inline;opacity:0.5;fill:#FFFFFF;}
	.st16{display:inline;opacity:0.4;fill:#263238;}
	.st17{display:inline;opacity:0.2;fill:#FFFFFF;}
	.st18{fill:#FF5652;}
</style>
<g id="Background_Complete">
	<g>
		<rect y="382.4" class="st0" width="500" height="0.2"/>
		<rect x="52.5" y="391.9" class="st0" width="33.1" height="0.2"/>
		<rect x="153.4" y="389.2" class="st0" width="26.4" height="0.2"/>
		<rect x="90" y="397.8" class="st0" width="45.9" height="0.2"/>
		<rect x="428.3" y="399.5" class="st0" width="21.6" height="0.2"/>
		<rect x="391.5" y="399.5" class="st0" width="32" height="0.2"/>
		<rect x="277.2" y="395.3" class="st0" width="55.1" height="0.2"/>
		<path class="st0" d="M237,337.8H43.9c-3.1,0-5.7-2.6-5.7-5.7V60.7c0-3.1,2.6-5.7,5.7-5.7H237c3.1,0,5.7,2.6,5.7,5.7v271.4
			C242.7,335.2,240.2,337.8,237,337.8z M43.9,55.2c-3,0-5.5,2.4-5.5,5.5v271.4c0,3,2.4,5.5,5.5,5.5H237c3,0,5.5-2.4,5.5-5.5V60.7
			c0-3-2.4-5.5-5.5-5.5H43.9z"/>
		<path class="st0" d="M453.3,337.8H260.2c-3.1,0-5.7-2.6-5.7-5.7V60.7c0-3.1,2.6-5.7,5.7-5.7h193.1c3.1,0,5.7,2.6,5.7,5.7v271.4
			C459,335.2,456.5,337.8,453.3,337.8z M260.2,55.2c-3,0-5.5,2.4-5.5,5.5v271.4c0,3,2.4,5.5,5.5,5.5h193.1c3,0,5.5-2.4,5.5-5.5V60.7
			c0-3-2.4-5.5-5.5-5.5H260.2z"/>
	</g>
	<g>
		<g>
			<rect x="77.5" y="85.5" class="st1" width="211.8" height="130.7"/>
			<rect x="80.1" y="85.5" class="st2" width="214.7" height="130.7"/>
			<rect x="77.5" y="216.1" class="st1" width="211.8" height="10.1"/>
			<rect x="89.1" y="216.1" class="st2" width="214.7" height="10.1"/>
			
				<rect x="129.7" y="51.1" transform="matrix(-1.836970e-16 1 -1 -1.836970e-16 338.2192 -36.604)" class="st3" width="115.4" height="199.5"/>
			<polygon class="st4" points="102.3,208.5 147,93.1 168.1,93.1 123.4,208.5 			"/>
			<polygon class="st4" points="128,208.5 172.7,93.1 180.9,93.1 136.2,208.5 			"/>
			<polygon class="st4" points="206.2,208.5 250.9,93.1 259.1,93.1 214.4,208.5 			"/>
			
				<rect x="228.9" y="150.3" transform="matrix(-1.836970e-16 1 -1 -1.836970e-16 437.4615 -135.8463)" class="st1" width="115.4" height="1"/>
		</g>
		<g>
			<rect x="269" y="282.9" class="st1" width="37.5" height="99.5"/>
			<polygon class="st2" points="299.4,382.4 306.5,382.4 306.5,359.6 291.9,359.6 			"/>
			<rect x="55.3" y="282.9" class="st1" width="37.5" height="99.5"/>
			<rect x="86.6" y="282.9" class="st2" width="219.9" height="95.9"/>
			<polygon class="st2" points="93.7,382.4 86.6,382.4 86.6,359.6 101.1,359.6 			"/>
			<g>
				<path class="st3" d="M159.1,296.2v68.3c0,1.3-1.1,2.4-2.4,2.4H96.3c-1.3,0-2.4-1.1-2.4-2.4v-68.3c0-1.3,1.1-2.4,2.4-2.4h60.4
					C158,293.8,159.1,294.9,159.1,296.2z"/>
				<path class="st2" d="M132.9,301.3H120c-5.6,0-11-3.3-14.8-9.2l0,0h42.5l0,0C143.9,298,138.5,301.3,132.9,301.3z"/>
			</g>
			<g>
				<path class="st3" d="M229.1,296.2v68.3c0,1.3-1.1,2.4-2.4,2.4h-60.4c-1.3,0-2.4-1.1-2.4-2.4v-68.3c0-1.3,1.1-2.4,2.4-2.4h60.4
					C228,293.8,229.1,294.9,229.1,296.2z"/>
				<path class="st2" d="M203.6,301.3h-12.9c-5.6,0-11-3.3-14.8-9.2l0,0h42.5l0,0C214.6,298,209.2,301.3,203.6,301.3z"/>
			</g>
			<g>
				<path class="st3" d="M299.2,296.2v68.3c0,1.3-1.1,2.4-2.4,2.4h-60.4c-1.3,0-2.4-1.1-2.4-2.4v-68.3c0-1.3,1.1-2.4,2.4-2.4h60.4
					C298.1,293.8,299.2,294.9,299.2,296.2z"/>
				<path class="st2" d="M273.7,301.3h-12.9c-5.6,0-11-3.3-14.8-9.2l0,0h42.5l0,0C284.7,298,279.3,301.3,273.7,301.3z"/>
			</g>
		</g>
		<g>
			<path class="st2" d="M461.5,273.2c-0.1-0.5-0.5-0.8-1-0.8h-26.1c-0.5,0-0.9,0.3-1,0.8l-13.5,109.2h2l13.2-108h24.4l13.2,108h2
				L461.5,273.2z"/>
			<path class="st2" d="M422.2,273.2c-0.1-0.5-0.5-0.8-1-0.8h-26.1c-0.5,0-0.9,0.3-1,0.8l-13.5,109.2h2l13.3-108h24.4l13.2,108h2
				L422.2,273.2z"/>
			<path class="st2" d="M441,273.4H396c-8.6,0-13.3-5.8-15.7-15.4l-1.2-5.5c-1-4.5,0.7-9.3,4.5-11.9c1.8-1.3,4.1-2,6.5-2h28.1
				c5.8,0,7.4,1.4,11.4,10.2C433.7,257.5,441,273.4,441,273.4z"/>
			<path class="st2" d="M460.4,264.8h-43.9v8.6h47.9c1.2,0,2.2-1,2.2-2.2v-0.2C466.6,267.5,463.8,264.8,460.4,264.8z"/>
		</g>
		<g>
			<path class="st2" d="M403,273.2c-0.1-0.5-0.5-0.8-1-0.8h-26.1c-0.5,0-0.9,0.3-1,0.8l-13.5,109.2h2l13.2-108h24.4l13.2,108h2
				L403,273.2z"/>
			<path class="st2" d="M363.7,273.2c-0.1-0.5-0.5-0.8-1-0.8h-26.1c-0.5,0-0.9,0.3-1,0.8l-13.5,109.2h2l13.2-108h24.4l13.2,108h2
				L363.7,273.2z"/>
			<path class="st2" d="M382.4,273.4h-44.9c-8.6,0-13.3-5.8-15.7-15.4l-1.2-5.5c-1-4.5,0.7-9.3,4.5-11.9c1.8-1.3,4.1-2,6.5-2h28.1
				c5.8,0,7.4,1.4,11.4,10.2C375.2,257.5,382.4,273.4,382.4,273.4z"/>
			<path class="st2" d="M401.9,264.8H358v8.6h47.9c1.2,0,2.2-1,2.2-2.2v-0.2C408.1,267.5,405.3,264.8,401.9,264.8z"/>
		</g>
		<g>
			<rect x="351.5" y="80.1" class="st2" width="77.7" height="90.6"/>
			<rect x="352.7" y="80.1" class="st5" width="83" height="90.6"/>
			
				<rect x="356.1" y="91" transform="matrix(-1.836970e-16 1 -1 -1.836970e-16 519.62 -268.8081)" class="st4" width="76.3" height="68.8"/>
			<g>
				
					<rect x="388.7" y="119.8" transform="matrix(-1 -1.224647e-16 1.224647e-16 -1 788.4285 274.0151)" class="st1" width="11.1" height="34.4"/>
				<g>
					
						<rect x="407.5" y="138.1" transform="matrix(-1 -1.224647e-16 1.224647e-16 -1 826.0478 292.2845)" class="st1" width="11.1" height="16.1"/>
					
						<rect x="407.5" y="128.3" transform="matrix(-1 -1.224647e-16 1.224647e-16 -1 826.0478 266.3959)" class="st2" width="11.1" height="9.8"/>
				</g>
				
					<rect x="388.7" y="98.9" transform="matrix(-1 -1.224647e-16 1.224647e-16 -1 788.4285 218.7171)" class="st2" width="11.1" height="20.9"/>
				
					<rect x="369.9" y="126.1" transform="matrix(-1 -1.224647e-16 1.224647e-16 -1 750.8093 280.27)" class="st1" width="11.1" height="28.1"/>
				
					<rect x="369.9" y="113.2" transform="matrix(-1 -1.224647e-16 1.224647e-16 -1 750.8093 239.2944)" class="st2" width="11.1" height="12.9"/>
			</g>
		</g>
	</g>
</g>
<g id="Background_Simple" class="st6">
	<g class="st7">
		<path class="st8" d="M266.7,334.2c87.1-15.7,184.6-60,170.7-160.9C424.7,81.8,321,38.2,242.5,96.8c-33.8,25.3-38.7,67.9-77.4,88.5
			c-38.6,20.6-95.8,23.9-93.9,82.2C74.2,357.7,209.3,344.6,266.7,334.2z"/>
		<path class="st9" d="M266.7,334.2c87.1-15.7,184.6-60,170.7-160.9C424.7,81.8,321,38.2,242.5,96.8c-33.8,25.3-38.7,67.9-77.4,88.5
			c-38.6,20.6-95.8,23.9-93.9,82.2C74.2,357.7,209.3,344.6,266.7,334.2z"/>
	</g>
</g>
<g id="Shadow_1_">
	<ellipse id="_x3C_Path_x3E__272_" class="st5" cx="250" cy="416.2" rx="193.9" ry="11.3"/>
</g>
<g id="Character_1_">
	<g>
		<g>
			<polygon class="st10" points="246.4,407 255.2,407 259.9,386.5 251.1,386.5 			"/>
			<path class="st11" d="M255.4,406l-9.7-0.1c-0.4,0-0.7,0.2-0.8,0.6l-2.3,7.9c-0.2,0.8,0.3,1.6,1.2,1.6c3.5,0,8.6-0.2,12.9-0.2
				c5.1,0,6.2,0.4,12.2,0.4c3.6,0,4.9-3.6,3.4-4c-6.8-1.6-9.1-1.8-14.8-5.5C256.9,406.3,256.2,406,255.4,406z"/>
			<g>
				<polygon class="st12" points="259.9,386.5 257.5,397.1 248.6,397 251.1,386.5 				"/>
			</g>
			<path class="st8" d="M259.1,407.6c-1,0-2.1-0.2-2.8-0.3c-0.1,0-0.2-0.1-0.2-0.2c0-0.1,0-0.2,0.1-0.2c0.4-0.2,4.1-2,5.2-1.4
				c0.2,0.1,0.3,0.3,0.3,0.6c0,0.4-0.2,0.8-0.5,1C260.7,407.5,259.9,407.6,259.1,407.6z M257,407c1.9,0.3,3.4,0.3,4-0.2
				c0.2-0.2,0.3-0.4,0.3-0.7c0-0.1-0.1-0.2-0.1-0.2C260.6,405.5,258.5,406.3,257,407z"/>
			<path class="st8" d="M256.3,407.3c0,0-0.1,0-0.1,0c-0.1,0-0.1-0.1-0.1-0.2c0-0.2,0.7-4,2.8-3.7c0.6,0.1,0.7,0.3,0.7,0.6
				C259.8,404.8,257.5,406.8,256.3,407.3C256.4,407.3,256.3,407.3,256.3,407.3z M258.7,403.7c-1.3,0-1.9,2.1-2.1,3
				c1.2-0.7,2.7-2.2,2.6-2.8c0,0,0-0.2-0.4-0.2C258.8,403.7,258.8,403.7,258.7,403.7z"/>
			<path class="st10" d="M300,164.6c0.1,5.4,0.3,11,0.6,16.5c0.1,2.7,0.3,5.5,0.5,8.2c0.2,2.7,0.4,5.4,0.7,8.1
				c0.1,1.3,0.3,2.7,0.5,4l0.1,1c0,0.1,0,0,0,0.1l0,0c0,0,0,0,0,0c0,0,0,0.1,0,0.3c0.2,0.4,0.7,1,1.5,1.6c0.8,0.6,1.7,1.2,2.8,1.7
				c4.2,2.2,9.6,3.8,14.7,5.2l-0.5,6.8c-3.1,0.2-6,0.1-9-0.2c-1.5-0.1-3-0.4-4.5-0.7c-1.5-0.3-3.1-0.7-4.6-1.2
				c-1.6-0.5-3.2-1.1-4.8-2c-1.6-0.9-3.3-2.1-4.9-3.9c-0.8-0.9-1.5-2.1-2-3.4c-0.1-0.3-0.2-0.7-0.4-1l-0.1-0.5l-0.1-0.5l-0.2-1.1
				c-0.3-1.5-0.6-2.9-0.9-4.4c-1.1-5.8-1.7-11.6-2.2-17.3c-0.2-2.9-0.4-5.7-0.5-8.6c-0.1-2.9-0.2-5.7-0.1-8.7L300,164.6z"/>
			<g>
				<path class="st8" d="M283.1,165.3c-1.3,10,1.1,24.9,1.1,24.9s7,1,12.5-0.4c5.4-1.4,6.6-2.5,6.6-2.5s2.2-10.2,0.2-20.9
					c-2.2-11.3-11.3-15.7-17.6-8.7C284.3,159.2,283.5,162,283.1,165.3z"/>
				<path class="st12" d="M284.2,170.2c-0.5,1.6-1,3.4-1.4,5.2c0.3,7.7,1.4,14.9,1.4,14.9s6.3,0.9,11.6-0.2c0.2-1.9,0.3-4,0.2-6.1
					C296,174.3,290.4,168.6,284.2,170.2z"/>
			</g>
			<path class="st10" d="M318.2,210.8l6.9-0.5l-0.3,8.8c0,0-4.3,0.8-8.6-2.7L318.2,210.8z"/>
			<path class="st10" d="M332.2,214.4l-1.3,3.6c-0.4,1-1.4,1.6-2.4,1.5l-3.7-0.4l0.3-8.8l5.3,1.1
				C331.8,211.6,332.6,213.1,332.2,214.4z"/>
			<g>
				<path class="st11" d="M323.1,219.9l-2.2-1.3c-0.6-0.3-0.8-1-0.5-1.6l5-9c0.3-0.6,1-0.8,1.6-0.5l2.2,1.3c0.6,0.3,0.8,1,0.5,1.6
					l-5,9C324.4,220,323.7,220.2,323.1,219.9z"/>
				<path class="st11" d="M322.4,223.4l-4.1-2.3c-0.3-0.2-0.4-0.6-0.2-0.9l2-3.6c0.2-0.3,0.6-0.4,0.9-0.2l4.1,2.3
					c0.3,0.2,0.4,0.6,0.2,0.9l-2,3.6C323.1,223.5,322.7,223.6,322.4,223.4z"/>
				<path class="st11" d="M334.8,211c-2.4,0-4.9-0.6-7.1-1.8c-7.2-4-9.7-13.4-5.6-20.9c4.2-7.5,13.4-10.3,20.7-6.2
					c7.2,4,9.7,13.4,5.6,20.9l0,0C345.5,208.1,340.2,211,334.8,211z M335.6,182.3c-4.6,0-9.2,2.5-11.7,7c-3.6,6.5-1.5,14.5,4.7,18
					c6.2,3.5,14.2,1,17.8-5.4l0,0c3.6-6.5,1.5-14.5-4.7-18C339.8,182.8,337.7,182.3,335.6,182.3z"/>
			</g>
			<g>
				<path class="st11" d="M281.4,230.3c0,0,4.5,50,3.2,77.4c-1.4,28.4-21.5,84.3-21.5,84.3l-16-0.3c0,0,11-61.6,10.7-89.8
					c-0.3-30.8-3.1-76.9-3.1-76.9L281.4,230.3z"/>
				<path class="st12" d="M260.5,237.9c-1.8-2.2-3.5-0.1-4.8,3.9c0.6,10.8,1.3,25.3,1.7,39.5C265.2,269.4,266.4,244.9,260.5,237.9z"
					/>
				<g>
					<polygon class="st8" points="245.2,392.3 264,392.7 266,386.5 246.4,386.4 					"/>
					<polygon class="st13" points="245.2,392.3 264,392.7 266,386.5 246.4,386.4 					"/>
				</g>
			</g>
			<polygon class="st10" points="180.1,372.1 186.8,377.9 201.9,363.9 195.2,358.1 			"/>
			<path class="st11" d="M187.4,378.2l-5.1-8.3c-0.2-0.3-0.6-0.5-0.9-0.4l-7.9,2.2c-0.8,0.2-1.2,1.1-0.7,1.8c1.9,3,4.7,7.2,7,10.9
				c2.7,4.4,2.7,4.3,5.8,9.4c1.9,3.1,5.7,2.3,5.2,0.8c-2.3-6.6-3-7.5-2.9-14.4C187.9,379.6,187.8,378.9,187.4,378.2z"/>
			<g>
				<polygon class="st12" points="201.9,363.9 194.1,371.1 187.4,365.3 195.2,358.1 				"/>
			</g>
			<path class="st8" d="M188,382.1c-0.5-0.8-0.9-1.9-1.2-2.6c0-0.1,0-0.2,0.1-0.2c0.1-0.1,0.2-0.1,0.2,0c0.4,0.2,3.9,2.5,3.9,3.7
				c0,0.2-0.1,0.4-0.3,0.6c-0.4,0.2-0.7,0.3-1.1,0.1C188.9,383.5,188.4,382.9,188,382.1z M187.4,380c0.7,1.8,1.6,3,2.3,3.3
				c0.3,0.1,0.5,0.1,0.7-0.1c0.1-0.1,0.1-0.1,0.1-0.2C190.5,382.3,188.8,380.9,187.4,380z"/>
			<path class="st8" d="M186.8,379.6c0,0,0-0.1,0-0.1c0-0.1,0.1-0.1,0.1-0.2c0.2-0.1,3.7-1.5,4.7,0.4c0.2,0.5,0.1,0.8-0.1,0.9
				C190.7,381.3,187.8,380.4,186.8,379.6C186.8,379.6,186.8,379.6,186.8,379.6z M191.1,379.8c-0.7-1.1-2.8-0.5-3.7-0.2
				c1.2,0.6,3.3,1.2,3.7,0.8c0,0,0.1-0.1,0-0.4C191.1,379.8,191.1,379.8,191.1,379.8z"/>
			<g>
				<path class="st11" d="M265.2,227c0,0-8.4,46.8-14.5,73.5c-6.3,27.7-49.8,69.6-49.8,69.6l-12-10.6c0,0,31.8-41.6,36.4-69.4
					c5-30.4,9.6-69.2,9.6-69.2L265.2,227z"/>
				<g>
					<polygon class="st8" points="186.5,359.5 200.2,371.8 204.8,367.9 190.4,354 					"/>
					<polygon class="st13" points="186.5,359.5 200.2,371.8 204.8,367.9 190.4,354 					"/>
				</g>
			</g>
			<g>
				<path class="st8" d="M296.1,155.1c0,0,5,28.3-14.6,75.2c-14-2.8-39.7-8-46.5-9.4c1.1-7.2,12.6-41.1,12.5-76.1c0,0,8.3,0,16,1.2
					c6,0.9,14.6,2.5,19.8,4C289.9,152,296.1,155.1,296.1,155.1z"/>
				<g class="st6">
					<path class="st14" d="M287.5,183.4c-0.6,9.2-6.8,16.3-13.6,15.8c-2.2-0.1-4.3-1.1-6.1-2.7l1.9-3.8c1.3,1.2,2.8,1.8,4.4,1.9
						c5,0.3,9.5-4.9,9.9-11.6L287.5,183.4z"/>
					<path class="st15" d="M287.5,183.4l-3.3-0.2c0.1-1.8-0.1-3.6-0.5-5.2c-0.5-1.7-1.2-3.1-2.1-4.3l2.4-3.3c1.3,1.7,2.3,3.7,2.9,6
						C287.5,178.5,287.7,181,287.5,183.4z"/>
					<path class="st16" d="M284,170.3l-2.4,3.3c-0.7-1-1.6-1.8-2.6-2.3c-1-0.6-2-0.9-3.1-1l0.3-4.5c1.4,0.1,2.9,0.5,4.2,1.3
						C281.7,167.9,282.9,169,284,170.3z"/>
					<path class="st17" d="M276.2,165.9l-0.3,4.5c-5-0.3-9.5,4.9-9.9,11.6c-0.3,4.3,1.2,8.5,3.8,10.9l-1.9,3.8
						c-3.7-3.2-5.7-8.9-5.2-14.9C263.3,172.5,269.4,165.4,276.2,165.9z"/>
				</g>
				<path class="st12" d="M246.1,167.8c-0.4,3.5-0.9,7-1.5,10.3c3.9-1.8,9.2-11.3,8.6-16.6L246.1,167.8z"/>
			</g>
			<path class="st10" d="M269.9,124.1c0,6.6-1.1,18.5-6.4,21.9c0,0,1.8,7.4,15.5,12.4c6.7-3,4.3-8.4,4.3-8.4
				c-6.7-3.1-5.5-8.3-3.3-13L269.9,124.1z"/>
			<path class="st12" d="M274,129.4l5.9,7.6c-0.5,1.1-1,2.2-1.3,3.4c-2.6-0.9-5.8-4.7-5.5-7.6C273.3,131.3,273.6,130,274,129.4z"/>
			<path class="st11" d="M289.4,122.2c1.2-3,1.4-6.4-1-8.7c0.1-2,1.6-4.3,3.7-6.1C295.1,105.8,301,117.1,289.4,122.2z"/>
			<path class="st11" d="M292.9,112.5c-0.5,0-1-0.4-1-1c0-0.6,0.4-1,1-1l0,0c0.2,0,4.8-0.3,6.2-5.6c0.1-0.5,0.7-0.8,1.2-0.7
				c0.5,0.1,0.8,0.7,0.7,1.2C299.5,110.9,295.1,112.4,292.9,112.5C292.9,112.5,292.9,112.5,292.9,112.5z"/>
			<path class="st10" d="M271,114.4c-1.2,8.7-2.4,13.8,1.1,19c5.2,8,16.6,6.2,20.4-2c3.4-7.4,4.8-20.4-2.9-25.5
				C282,100.9,272.2,105.7,271,114.4z"/>
			<path class="st11" d="M270.8,122.1c1.3,0.1,2.2,0.2,3,0.4c1.1,0.2,2-0.6,2-1.7c-0.2-2.1,0.4-4.3,2.4-5.2c0.3-1.2-0.2-3-1.1-4.5
				c-0.5-0.8,0.3-1.7,1.2-1.4c4.3,1.7,10.9,4.3,14.2,2.6c4.3-2.2,9.2-10.1,2.7-10.7c-3.1-0.3-2.7-2-5.1-3.6c-2.3-1.6-8-1.4-12.3,0.8
				c-4.2,2.1-11-1.8-13.5,1.3c-1.9,2.3-0.7,5.6-0.7,5.6s-3.7,0.5-4.3,7.5c-0.5,5.2,7.9,15.2,10.6,16.2
				C271.1,123.9,270.8,122.1,270.8,122.1z"/>
			<path class="st11" d="M264.6,108.1c-0.4,0-0.8-0.3-0.9-0.7c-0.2-0.4-1.1-2.6-3.8-1.6c-0.5,0.2-1.1-0.1-1.3-0.6
				c-0.2-0.5,0.1-1.1,0.6-1.3c1.5-0.5,2.8-0.5,3.9,0.1c1.8,0.9,2.4,2.7,2.4,2.8c0.2,0.5-0.1,1.1-0.6,1.3
				C264.8,108.1,264.7,108.1,264.6,108.1z"/>
			<path class="st11" d="M283.6,119.4c-0.1,0.7,0.1,1.3,0.6,1.4c0.5,0.1,0.9-0.4,1.1-1.1c0.1-0.7-0.1-1.3-0.6-1.4
				C284.2,118.3,283.7,118.7,283.6,119.4z"/>
			<path class="st11" d="M291.5,121c-0.1,0.7,0.1,1.3,0.6,1.4c0.5,0.1,0.9-0.4,1.1-1.1c0.1-0.7-0.1-1.3-0.6-1.4
				C292.2,119.9,291.7,120.3,291.5,121z"/>
			<path class="st18" d="M288.9,120.9c0,0,0.8,4.4,2.1,6.7c-1.5,0.9-3.5,0-3.5,0L288.9,120.9z"/>
			<path class="st11" d="M285.2,129C285.2,129,285.2,129,285.2,129c-3.3-0.7-4.4-3.2-4.4-3.3c0-0.1,0-0.2,0.1-0.3
				c0.1,0,0.2,0,0.3,0.1c0,0,1,2.5,4.1,3.1c0.1,0,0.2,0.1,0.2,0.2C285.4,129,285.3,129.1,285.2,129z"/>
			<path class="st11" d="M285.4,115.4c0.1,0.1,0.1,0.1,0.2,0.2c0.1,0.2-0.1,0.5-0.3,0.5c-2.2,0.6-3.7-0.7-3.8-0.7
				c-0.2-0.2-0.2-0.4,0-0.6c0.2-0.2,0.4-0.2,0.6,0l0,0c0,0,1.2,1,3,0.5C285.2,115.3,285.3,115.4,285.4,115.4z"/>
			<path class="st11" d="M296,117.4c-0.2,0-0.3-0.1-0.4-0.2c-0.8-1.7-2.3-1.9-2.3-1.9c-0.2,0-0.4-0.2-0.4-0.5c0-0.2,0.2-0.4,0.5-0.4
				c0.1,0,2,0.3,3,2.4c0.1,0.2,0,0.5-0.2,0.6C296.1,117.4,296.1,117.4,296,117.4z"/>
			<path class="st10" d="M254.5,160.3c-2.1,2.2-4.3,4.5-6.4,6.8c-2.1,2.3-4.3,4.6-6.3,7c-4.1,4.7-8.1,9.6-11.6,14.5l-1.3,1.8
				c-0.3,0.4-0.5,0.7-0.7,1.2c-0.4,0.8-0.7,1.8-0.8,3c-0.3,2.3-0.1,5,0.5,7.8c1.1,5.6,3.5,11.5,6.1,17l-5.6,3.9
				c-1.2-1.4-2.2-2.7-3.2-4.1c-1-1.4-2-2.8-2.8-4.3c-1.8-3-3.4-6.1-4.6-9.6c-1.2-3.4-2.1-7.2-2-11.4c0-2.1,0.3-4.3,1.1-6.5
				c0.4-1.1,0.8-2.2,1.4-3.2l1.3-2.3c0.9-1.5,1.8-2.9,2.7-4.4c1-1.4,1.9-2.8,2.9-4.2c2-2.8,4-5.4,6.1-8c2.1-2.6,4.3-5.1,6.6-7.6
				c2.3-2.5,4.5-4.8,7-7.2L254.5,160.3z"/>
			<path class="st8" d="M247.5,144.8c-8.5,0.3-21.1,23.7-21.1,23.7c1.7,4,8.9,10.3,12.8,11.4c0,0,10.1-6.4,15.6-15.9
				C260.4,154,256.5,144.5,247.5,144.8z"/>
			<path class="st10" d="M231.7,217.5l9.4,1.7l-7.5,8.4c0,0-6.4-2.8-6.4-6.3L231.7,217.5z"/>
			<path class="st10" d="M243.8,228.1l-1.9,2c-1.4,1.4-3.6,1.5-5.1,0.3l-3.2-2.7l7.5-8.4l3,4.1C245.2,224.8,245.1,226.8,243.8,228.1
				z"/>
			<path class="st10" d="M266,120.5c-0.1,2.4,1,4.5,2.3,5.9c2.1,2.1,4.5,0.6,5.2-2.1c0.6-2.4,0.2-6.5-2.4-7.5
				C268.5,115.7,266.1,117.7,266,120.5z"/>
		</g>
	</g>
</g>
<g id="Data">
	<g>
		<g>
			<path class="st8" d="M92,365.9H76.7c-2.4,0-4.3-1.9-4.3-4.3v-26.9c0-2.4,1.9-4.3,4.3-4.3H92c2.4,0,4.3,1.9,4.3,4.3v26.9
				C96.3,364,94.4,365.9,92,365.9z"/>
			<path class="st8" d="M119.6,365.9h-15.3c-2.4,0-4.3-1.9-4.3-4.3v-45.7c0-2.4,1.9-4.3,4.3-4.3h15.3c2.4,0,4.3,1.9,4.3,4.3v45.7
				C123.9,364,122,365.9,119.6,365.9z"/>
			<path class="st8" d="M147.2,365.9h-15.3c-2.4,0-4.3-1.9-4.3-4.3v-37.6c0-2.4,1.9-4.3,4.3-4.3h15.3c2.4,0,4.3,1.9,4.3,4.3v37.6
				C151.5,364,149.6,365.9,147.2,365.9z"/>
			<path class="st8" d="M174.8,365.9h-15.3c-2.4,0-4.3-1.9-4.3-4.3v-49.2c0-2.4,1.9-4.3,4.3-4.3h15.3c2.4,0,4.3,1.9,4.3,4.3v49.2
				C179.1,364,177.2,365.9,174.8,365.9z"/>
			<path class="st8" d="M202.4,365.9h-15.3c-2.4,0-4.3-1.9-4.3-4.3v-61.6c0-2.4,1.9-4.3,4.3-4.3h15.3c2.4,0,4.3,1.9,4.3,4.3v61.6
				C206.7,364,204.8,365.9,202.4,365.9z"/>
			<path class="st8" d="M230,365.9h-15.3c-2.4,0-4.3-1.9-4.3-4.3v-74.6c0-2.4,1.9-4.3,4.3-4.3H230c2.4,0,4.3,1.9,4.3,4.3v74.6
				C234.3,364,232.4,365.9,230,365.9z"/>
			<path class="st8" d="M257.6,365.9h-15.3c-2.4,0-4.3-1.9-4.3-4.3v-54.9c0-2.4,1.9-4.3,4.3-4.3h15.3c2.4,0,4.3,1.9,4.3,4.3v54.9
				C261.9,364,260,365.9,257.6,365.9z"/>
			<path class="st8" d="M285.2,365.9H270c-2.4,0-4.3-1.9-4.3-4.3v-80.2c0-2.4,1.9-4.3,4.3-4.3h15.3c2.4,0,4.3,1.9,4.3,4.3v80.2
				C289.5,364,287.6,365.9,285.2,365.9z"/>
			<path class="st8" d="M312.8,365.9h-15.3c-2.4,0-4.3-1.9-4.3-4.3v-87.9c0-2.4,1.9-4.3,4.3-4.3h15.3c2.4,0,4.3,1.9,4.3,4.3v87.9
				C317.1,364,315.2,365.9,312.8,365.9z"/>
			<path class="st8" d="M340.5,365.9h-15.3c-2.4,0-4.3-1.9-4.3-4.3v-83.2c0-2.4,1.9-4.3,4.3-4.3h15.3c2.4,0,4.3,1.9,4.3,4.3v83.2
				C344.7,364,342.8,365.9,340.5,365.9z"/>
			<path class="st8" d="M368.1,365.9h-15.3c-2.4,0-4.3-1.9-4.3-4.3V251.1c0-2.4,1.9-4.3,4.3-4.3h15.3c2.4,0,4.3,1.9,4.3,4.3v110.5
				C372.3,364,370.4,365.9,368.1,365.9z"/>
			<path class="st8" d="M395.7,365.9h-15.3c-2.4,0-4.3-1.9-4.3-4.3v-99.2c0-2.4,1.9-4.3,4.3-4.3h15.3c2.4,0,4.3,1.9,4.3,4.3v99.2
				C399.9,364,398,365.9,395.7,365.9z"/>
			<path class="st8" d="M423.3,365.9H408c-2.4,0-4.3-1.9-4.3-4.3V234.8c0-2.4,1.9-4.3,4.3-4.3h15.3c2.4,0,4.3,1.9,4.3,4.3v126.8
				C427.5,364,425.6,365.9,423.3,365.9z"/>
		</g>
		<g>
			<path class="st11" d="M84.4,346.2c-0.2,0-0.3-0.1-0.4-0.2c-0.2-0.2-0.1-0.5,0.1-0.7l1.2-0.9c0.2-0.2,0.5-0.1,0.7,0.1
				c0.2,0.2,0.1,0.5-0.1,0.7l-1.2,0.9C84.6,346.2,84.5,346.2,84.4,346.2z"/>
			<path class="st11" d="M89.7,342.4c-0.2,0-0.3-0.1-0.4-0.2c-0.2-0.2-0.1-0.5,0.1-0.7l2.4-1.8c0.2-0.2,0.5-0.1,0.7,0.1
				c0.2,0.2,0.1,0.5-0.1,0.7l-2.4,1.8C89.9,342.4,89.8,342.4,89.7,342.4z M96.2,337.7c-0.2,0-0.3-0.1-0.4-0.2
				c-0.2-0.2-0.1-0.5,0.1-0.7l2.4-1.8c0.2-0.2,0.5-0.1,0.7,0.1c0.2,0.2,0.1,0.5-0.1,0.7l-2.4,1.8C96.4,337.6,96.3,337.7,96.2,337.7z
				 M102.6,333c-0.2,0-0.3-0.1-0.4-0.2c-0.2-0.2-0.1-0.5,0.1-0.7l2.4-1.8c0.2-0.2,0.5-0.1,0.7,0.1c0.2,0.2,0.1,0.5-0.1,0.7l-2.4,1.8
				C102.9,332.9,102.8,333,102.6,333z M109.1,328.2c-0.2,0-0.3-0.1-0.4-0.2c-0.2-0.2-0.1-0.5,0.1-0.7l2.4-1.8
				c0.2-0.2,0.5-0.1,0.7,0.1c0.2,0.2,0.1,0.5-0.1,0.7l-2.4,1.8C109.3,328.2,109.2,328.2,109.1,328.2z M115.6,323.5
				c-0.2,0-0.3-0.1-0.4-0.2c-0.2-0.2-0.1-0.5,0.1-0.7l2.4-1.8c0.2-0.2,0.5-0.1,0.7,0.1c0.2,0.2,0.1,0.5-0.1,0.7l-2.4,1.8
				C115.8,323.5,115.7,323.5,115.6,323.5z M122.1,318.8c-0.2,0-0.3-0.1-0.4-0.2c-0.2-0.2-0.1-0.5,0.1-0.7l2.4-1.8
				c0.2-0.2,0.5-0.1,0.7,0.1c0.2,0.2,0.1,0.5-0.1,0.7l-2.4,1.8C122.3,318.7,122.2,318.8,122.1,318.8z M128.6,314
				c-0.2,0-0.3-0.1-0.4-0.2c-0.2-0.2-0.1-0.5,0.1-0.7l2.4-1.8c0.2-0.2,0.5-0.1,0.7,0.1c0.2,0.2,0.1,0.5-0.1,0.7l-2.4,1.8
				C128.8,314,128.7,314,128.6,314z M135.1,309.3c-0.2,0-0.3-0.1-0.4-0.2c-0.2-0.2-0.1-0.5,0.1-0.7l2.4-1.8c0.2-0.2,0.5-0.1,0.7,0.1
				c0.2,0.2,0.1,0.5-0.1,0.7l-2.4,1.8C135.3,309.3,135.2,309.3,135.1,309.3z M141.6,304.6c-0.2,0-0.3-0.1-0.4-0.2
				c-0.2-0.2-0.1-0.5,0.1-0.7l2.4-1.8c0.2-0.2,0.5-0.1,0.7,0.1c0.2,0.2,0.1,0.5-0.1,0.7l-2.4,1.8
				C141.8,304.6,141.7,304.6,141.6,304.6z M148.1,299.9c-0.2,0-0.3-0.1-0.4-0.2c-0.2-0.2-0.1-0.5,0.1-0.7l2.4-1.8
				c0.2-0.2,0.5-0.1,0.7,0.1c0.2,0.2,0.1,0.5-0.1,0.7l-2.4,1.8C148.3,299.8,148.2,299.9,148.1,299.9z M154.6,295.1
				c-0.2,0-0.3-0.1-0.4-0.2c-0.2-0.2-0.1-0.5,0.1-0.7l2.4-1.8c0.2-0.2,0.5-0.1,0.7,0.1c0.2,0.2,0.1,0.5-0.1,0.7l-2.4,1.8
				C154.8,295.1,154.7,295.1,154.6,295.1z M161.1,290.4c-0.2,0-0.3-0.1-0.4-0.2c-0.2-0.2-0.1-0.5,0.1-0.7l2.4-1.8
				c0.2-0.2,0.5-0.1,0.7,0.1c0.2,0.2,0.1,0.5-0.1,0.7l-2.4,1.8C161.3,290.4,161.2,290.4,161.1,290.4z M167.6,285.7
				c-0.2,0-0.3-0.1-0.4-0.2c-0.2-0.2-0.1-0.5,0.1-0.7l2.4-1.8c0.2-0.2,0.5-0.1,0.7,0.1c0.2,0.2,0.1,0.5-0.1,0.7l-2.4,1.8
				C167.8,285.6,167.7,285.7,167.6,285.7z M174.1,280.9c-0.2,0-0.3-0.1-0.4-0.2c-0.2-0.2-0.1-0.5,0.1-0.7l2.4-1.8
				c0.2-0.2,0.5-0.1,0.7,0.1c0.2,0.2,0.1,0.5-0.1,0.7l-2.4,1.8C174.3,280.9,174.2,280.9,174.1,280.9z M180.6,276.2
				c-0.2,0-0.3-0.1-0.4-0.2c-0.2-0.2-0.1-0.5,0.1-0.7l2.4-1.8c0.2-0.2,0.5-0.1,0.7,0.1c0.2,0.2,0.1,0.5-0.1,0.7l-2.4,1.8
				C180.8,276.2,180.7,276.2,180.6,276.2z M187.1,271.5c-0.2,0-0.3-0.1-0.4-0.2c-0.2-0.2-0.1-0.5,0.1-0.7l2.4-1.8
				c0.2-0.2,0.5-0.1,0.7,0.1c0.2,0.2,0.1,0.5-0.1,0.7l-2.4,1.8C187.3,271.5,187.2,271.5,187.1,271.5z"/>
			<path class="st11" d="M193.6,266.8c-0.2,0-0.3-0.1-0.4-0.2c-0.2-0.2-0.1-0.5,0.1-0.7l1.2-0.9c0.1-0.1,0.3-0.1,0.4-0.1l1.5,0.4
				c0.3,0.1,0.4,0.3,0.4,0.6c-0.1,0.3-0.3,0.4-0.6,0.4l-1.2-0.3l-1,0.7C193.8,266.7,193.7,266.8,193.6,266.8z"/>
			<path class="st11" d="M305.2,294.4C305.1,294.4,305.1,294.4,305.2,294.4l-2.9-0.7c-0.3-0.1-0.4-0.3-0.4-0.6
				c0.1-0.3,0.3-0.4,0.6-0.4l2.8,0.7c0.2,0,0.3,0.1,0.4,0.2c0.1,0.2,0.1,0.5-0.2,0.7C305.4,294.3,305.3,294.4,305.2,294.4z
				 M297.5,292.4c0,0-0.1,0-0.1,0l-2.9-0.8c-0.3-0.1-0.4-0.3-0.4-0.6c0.1-0.3,0.3-0.4,0.6-0.4l2.9,0.8c0.3,0.1,0.4,0.3,0.4,0.6
				C297.9,292.2,297.7,292.4,297.5,292.4z M309.6,291.8c-0.2,0-0.3-0.1-0.4-0.3c-0.1-0.2-0.1-0.5,0.2-0.7l2.6-1.5
				c0.2-0.1,0.5-0.1,0.7,0.2c0.1,0.2,0.1,0.5-0.2,0.7l-2.6,1.5C309.8,291.8,309.7,291.8,309.6,291.8z M289.7,290.4c0,0-0.1,0-0.1,0
				l-2.9-0.8c-0.3-0.1-0.4-0.3-0.4-0.6c0.1-0.3,0.3-0.4,0.6-0.4l2.9,0.8c0.3,0.1,0.4,0.3,0.4,0.6
				C290.1,290.2,289.9,290.4,289.7,290.4z M281.9,288.4c0,0-0.1,0-0.1,0l-2.9-0.8c-0.3-0.1-0.4-0.3-0.4-0.6c0.1-0.3,0.3-0.4,0.6-0.4
				l2.9,0.8c0.3,0.1,0.4,0.3,0.4,0.6C282.3,288.2,282.1,288.4,281.9,288.4z M316.6,287.8c-0.2,0-0.3-0.1-0.4-0.3
				c-0.1-0.2-0.1-0.5,0.2-0.7l2.6-1.5c0.2-0.1,0.5-0.1,0.7,0.2c0.1,0.2,0.1,0.5-0.2,0.7l-2.6,1.5
				C316.8,287.8,316.7,287.8,316.6,287.8z M274.1,286.3c0,0-0.1,0-0.1,0l-2.9-0.8c-0.3-0.1-0.4-0.3-0.4-0.6c0.1-0.3,0.3-0.4,0.6-0.4
				l2.9,0.8c0.3,0.1,0.4,0.3,0.4,0.6C274.6,286.2,274.4,286.3,274.1,286.3z M266.3,284.3c0,0-0.1,0-0.1,0l-2.9-0.8
				c-0.3-0.1-0.4-0.3-0.4-0.6c0.1-0.3,0.3-0.4,0.6-0.4l2.9,0.8c0.3,0.1,0.4,0.3,0.4,0.6C266.8,284.2,266.6,284.3,266.3,284.3z
				 M323.6,283.8c-0.2,0-0.3-0.1-0.4-0.3c-0.1-0.2-0.1-0.5,0.2-0.7l2.6-1.5c0.2-0.1,0.5-0.1,0.7,0.2c0.1,0.2,0.1,0.5-0.2,0.7
				l-2.6,1.5C323.8,283.8,323.7,283.8,323.6,283.8z M258.6,282.3c0,0-0.1,0-0.1,0l-2.9-0.8c-0.3-0.1-0.4-0.3-0.4-0.6
				c0.1-0.3,0.3-0.4,0.6-0.4l2.9,0.8c0.3,0.1,0.4,0.3,0.4,0.6C259,282.2,258.8,282.3,258.6,282.3z M250.8,280.3c0,0-0.1,0-0.1,0
				l-2.9-0.8c-0.3-0.1-0.4-0.3-0.4-0.6c0.1-0.3,0.3-0.4,0.6-0.4l2.9,0.8c0.3,0.1,0.4,0.3,0.4,0.6C251.2,280.2,251,280.3,250.8,280.3
				z M330.6,279.8c-0.2,0-0.3-0.1-0.4-0.3c-0.1-0.2-0.1-0.5,0.2-0.7l2.6-1.5c0.2-0.1,0.5-0.1,0.7,0.2c0.1,0.2,0.1,0.5-0.2,0.7
				l-2.6,1.5C330.7,279.8,330.7,279.8,330.6,279.8z M243,278.3c0,0-0.1,0-0.1,0l-2.9-0.8c-0.3-0.1-0.4-0.3-0.4-0.6
				c0.1-0.3,0.3-0.4,0.6-0.4l2.9,0.8c0.3,0.1,0.4,0.3,0.4,0.6C243.4,278.2,243.2,278.3,243,278.3z M235.2,276.3c0,0-0.1,0-0.1,0
				l-2.9-0.8c-0.3-0.1-0.4-0.3-0.4-0.6c0.1-0.3,0.3-0.4,0.6-0.4l2.9,0.8c0.3,0.1,0.4,0.3,0.4,0.6
				C235.6,276.1,235.4,276.3,235.2,276.3z M337.6,275.8c-0.2,0-0.3-0.1-0.4-0.3c-0.1-0.2-0.1-0.5,0.2-0.7l2.6-1.5
				c0.2-0.1,0.5-0.1,0.7,0.2c0.1,0.2,0.1,0.5-0.2,0.7l-2.6,1.5C337.7,275.8,337.6,275.8,337.6,275.8z M227.4,274.3c0,0-0.1,0-0.1,0
				l-2.9-0.8c-0.3-0.1-0.4-0.3-0.4-0.6c0.1-0.3,0.3-0.4,0.6-0.4l2.9,0.8c0.3,0.1,0.4,0.3,0.4,0.6
				C227.8,274.1,227.6,274.3,227.4,274.3z M219.6,272.3c0,0-0.1,0-0.1,0l-2.9-0.8c-0.3-0.1-0.4-0.3-0.4-0.6c0.1-0.3,0.3-0.4,0.6-0.4
				l2.9,0.8c0.3,0.1,0.4,0.3,0.4,0.6C220,272.1,219.8,272.3,219.6,272.3z M344.5,271.8c-0.2,0-0.3-0.1-0.4-0.3
				c-0.1-0.2-0.1-0.5,0.2-0.7l2.6-1.5c0.2-0.1,0.5-0.1,0.7,0.2c0.1,0.2,0.1,0.5-0.2,0.7l-2.6,1.5
				C344.7,271.8,344.6,271.8,344.5,271.8z M211.8,270.3c0,0-0.1,0-0.1,0l-2.9-0.8c-0.3-0.1-0.4-0.3-0.4-0.6c0.1-0.3,0.3-0.4,0.6-0.4
				l2.9,0.8c0.3,0.1,0.4,0.3,0.4,0.6C212.2,270.1,212,270.3,211.8,270.3z M204,268.3c0,0-0.1,0-0.1,0l-2.9-0.8
				c-0.3-0.1-0.4-0.3-0.4-0.6c0.1-0.3,0.3-0.4,0.6-0.4l2.9,0.8c0.3,0.1,0.4,0.3,0.4,0.6C204.5,268.1,204.3,268.3,204,268.3z
				 M351.5,267.8c-0.2,0-0.3-0.1-0.4-0.3c-0.1-0.2-0.1-0.5,0.2-0.7l2.6-1.5c0.2-0.1,0.5-0.1,0.7,0.2c0.1,0.2,0.1,0.5-0.2,0.7
				l-2.6,1.5C351.7,267.8,351.6,267.8,351.5,267.8z M358.5,263.8c-0.2,0-0.3-0.1-0.4-0.3c-0.1-0.2-0.1-0.5,0.2-0.7l2.6-1.5
				c0.2-0.1,0.5-0.1,0.7,0.2c0.1,0.2,0.1,0.5-0.2,0.7l-2.6,1.5C358.7,263.8,358.6,263.8,358.5,263.8z M365.5,259.8
				c-0.2,0-0.3-0.1-0.4-0.3c-0.1-0.2-0.1-0.5,0.2-0.7l2.6-1.5c0.2-0.1,0.5-0.1,0.7,0.2c0.1,0.2,0.1,0.5-0.2,0.7l-2.6,1.5
				C365.6,259.8,365.5,259.8,365.5,259.8z M372.4,255.8c-0.2,0-0.3-0.1-0.4-0.3c-0.1-0.2-0.1-0.5,0.2-0.7l2.6-1.5
				c0.2-0.1,0.5-0.1,0.7,0.2c0.1,0.2,0.1,0.5-0.2,0.7l-2.6,1.5C372.6,255.8,372.5,255.8,372.4,255.8z M379.4,251.8
				c-0.2,0-0.3-0.1-0.4-0.3c-0.1-0.2-0.1-0.5,0.2-0.7l2.6-1.5c0.2-0.1,0.5-0.1,0.7,0.2c0.1,0.2,0.1,0.5-0.2,0.7l-2.6,1.5
				C379.6,251.8,379.5,251.8,379.4,251.8z M386.4,247.8c-0.2,0-0.3-0.1-0.4-0.3c-0.1-0.2-0.1-0.5,0.2-0.7l2.6-1.5
				c0.2-0.1,0.5-0.1,0.7,0.2c0.1,0.2,0.1,0.5-0.2,0.7l-2.6,1.5C386.6,247.8,386.5,247.8,386.4,247.8z M393.4,243.8
				c-0.2,0-0.3-0.1-0.4-0.3c-0.1-0.2-0.1-0.5,0.2-0.7l2.6-1.5c0.2-0.1,0.5-0.1,0.7,0.2c0.1,0.2,0.1,0.5-0.2,0.7l-2.6,1.5
				C393.5,243.8,393.5,243.8,393.4,243.8z M400.4,239.8c-0.2,0-0.3-0.1-0.4-0.3c-0.1-0.2-0.1-0.5,0.2-0.7l2.6-1.5
				c0.2-0.1,0.5-0.1,0.7,0.2c0.1,0.2,0.1,0.5-0.2,0.7l-2.6,1.5C400.5,239.8,400.4,239.8,400.4,239.8z M407.3,235.8
				c-0.2,0-0.3-0.1-0.4-0.3c-0.1-0.2-0.1-0.5,0.2-0.7l2.6-1.5c0.2-0.1,0.5-0.1,0.7,0.2c0.1,0.2,0.1,0.5-0.2,0.7l-2.6,1.5
				C407.5,235.8,407.4,235.8,407.3,235.8z"/>
			<path class="st11" d="M414.3,231.8c-0.2,0-0.3-0.1-0.4-0.3c-0.1-0.2-0.1-0.5,0.2-0.7l1.3-0.7c0.2-0.1,0.5-0.1,0.7,0.2
				c0.1,0.2,0.1,0.5-0.2,0.7l-1.3,0.7C414.5,231.8,414.4,231.8,414.3,231.8z"/>
		</g>
		<g>
			<path class="st4" d="M88.5,345.7c0,2.3-1.8,4.1-4.1,4.1c-2.3,0-4.1-1.8-4.1-4.1c0-2.3,1.8-4.1,4.1-4.1
				C86.7,341.6,88.5,343.5,88.5,345.7z"/>
			<path class="st11" d="M84.4,350.3c-2.5,0-4.6-2.1-4.6-4.6c0-2.5,2.1-4.6,4.6-4.6c2.5,0,4.6,2.1,4.6,4.6
				C89,348.3,86.9,350.3,84.4,350.3z M84.4,342.1c-2,0-3.6,1.6-3.6,3.6c0,2,1.6,3.6,3.6,3.6c2,0,3.6-1.6,3.6-3.6
				C88,343.8,86.4,342.1,84.4,342.1z"/>
		</g>
		<g>
			<circle class="st4" cx="194.8" cy="265.4" r="4.1"/>
			<path class="st11" d="M194.8,270c-2.5,0-4.6-2.1-4.6-4.6c0-2.5,2.1-4.6,4.6-4.6s4.6,2.1,4.6,4.6C199.4,267.9,197.3,270,194.8,270
				z M194.8,261.8c-2,0-3.6,1.6-3.6,3.6c0,2,1.6,3.6,3.6,3.6c2,0,3.6-1.6,3.6-3.6C198.4,263.4,196.8,261.8,194.8,261.8z"/>
		</g>
		<g>
			<circle class="st4" cx="305.2" cy="293.9" r="4.1"/>
			<path class="st11" d="M305.2,298.5c-2.5,0-4.6-2.1-4.6-4.6c0-2.5,2.1-4.6,4.6-4.6c2.5,0,4.6,2.1,4.6,4.6
				C309.8,296.4,307.7,298.5,305.2,298.5z M305.2,290.3c-2,0-3.6,1.6-3.6,3.6c0,2,1.6,3.6,3.6,3.6c2,0,3.6-1.6,3.6-3.6
				C308.8,291.9,307.2,290.3,305.2,290.3z"/>
		</g>
		<g>
			<circle class="st4" cx="415.6" cy="230.6" r="4.1"/>
			<path class="st11" d="M415.6,235.2c-2.5,0-4.6-2.1-4.6-4.6s2.1-4.6,4.6-4.6c2.5,0,4.6,2.1,4.6,4.6S418.2,235.2,415.6,235.2z
				 M415.6,227c-2,0-3.6,1.6-3.6,3.6s1.6,3.6,3.6,3.6c2,0,3.6-1.6,3.6-3.6S417.6,227,415.6,227z"/>
		</g>
	</g>
</g>
</svg>
