<?xml version="1.0" encoding="utf-8"?>
<!-- Generator: Adobe Illustrator 25.2.0, SVG Export Plug-In . SVG Version: 6.00 Build 0)  -->
<svg version="1.1" xmlns="http://www.w3.org/2000/svg" xmlns:xlink="http://www.w3.org/1999/xlink" x="0px" y="0px"
	 viewBox="0 0 750 500" style="enable-background:new 0 0 750 500;" xml:space="preserve">
<g id="BACKGROUND">
	<g>
		<rect style="fill:#2B2B3F;" width="750" height="500"/>
	</g>
</g>
<g id="OBJECTS">
	<g>
		<path style="fill:#323247;" d="M326.6,304.32l-7.71,2.65l7.71,2.65v4.32l-12.97-4.71v-4.53l12.97-4.71V304.32z"/>
		<path style="fill:#323247;" d="M335.37,294.45h5.09l-8.4,23.96h-5.09L335.37,294.45z"/>
		<path style="fill:#323247;" d="M353.56,304.7v4.53l-12.97,4.71v-4.32l7.71-2.65l-7.71-2.65v-4.32L353.56,304.7z"/>
	</g>
	<g>
		<g>
			<path style="fill:#B83D5D;" d="M466.06,221.79c-1.49,32.66-33.6,57.69-57.65,59.21c-31.78,2-54.49-26.66-57.65-59.21
				c-2.74-28.19,7.27-27.77,14.73-39.53c9.04-14.24,25.88-22.11,42.92-22.11C440.25,160.15,468.07,177.84,466.06,221.79z"/>
		</g>
		<g>
			<rect x="386.06" y="277.95" style="fill:#E3B5AA;" width="44.69" height="55.94"/>
		</g>
		<g>
			<g>
				<g>
					<path style="fill:#E3B5AA;" d="M458.6,245.32c7.97-12.1,18.11-12.63,22.35,1.68c4.23,14.31-9.74,26.08-21.12,21.73
						C448.44,264.38,458.6,245.32,458.6,245.32z"/>
				</g>
				<g>
					<path style="fill:#D78F97;" d="M468.01,245.63c5.34-0.98,8.08,14.93-3.63,15.46l2.41-5.55l-2.26-4.62L468.01,245.63z"/>
				</g>
				<g>
					<path style="fill:#C87E84;" d="M462.81,263.44l-0.37-0.34c6.57-7.01,2.1-11.8,1.9-12l-0.12-0.13l0.08-0.16
						c0.15-0.3,3.63-7.4,6.69-7.09c1.26,0.13,2.23,1.48,2.88,4.03l-0.48,0.12c-0.59-2.32-1.42-3.55-2.45-3.66
						c-2.17-0.22-5.08,4.6-6.11,6.67C465.54,251.75,469.1,256.73,462.81,263.44z"/>
				</g>
			</g>
		</g>
		<g>
			<g>
				<g>
					<path style="fill:#E3B5AA;" d="M357.84,245.32c-7.97-12.1-18.11-12.63-22.35,1.68c-4.23,14.31,9.74,26.08,21.12,21.73
						C367.99,264.38,357.84,245.32,357.84,245.32z"/>
				</g>
				<g>
					<path style="fill:#D78F97;" d="M348.43,245.63c-5.34-0.98-8.08,14.93,3.63,15.46l-2.41-5.55l2.26-4.62L348.43,245.63z"/>
				</g>
				<g>
					<path style="fill:#C87E84;" d="M353.63,263.44c-6.29-6.71-2.74-11.69-2.02-12.56c-1.03-2.07-3.95-6.88-6.11-6.67
						c-1.03,0.11-1.86,1.34-2.45,3.66l-0.48-0.12c0.65-2.54,1.62-3.9,2.88-4.03c3.06-0.32,6.54,6.79,6.69,7.09l0.08,0.16l-0.12,0.13
						c-0.19,0.2-4.67,5,1.9,12L353.63,263.44z"/>
				</g>
			</g>
		</g>
		<g>
			<path style="fill:#C87E84;" d="M430.75,279.18v20.81c-16.06,21.76-44.69,14.69-44.69,14.69l0.5-35.5H430.75z"/>
		</g>
		<g>
			<path style="fill:#E3B5AA;" d="M408.41,303.03L408.41,303.03c-26.68,0-48.3-21.62-48.3-48.3v-35.3
				c0-18.02,14.61-32.62,32.62-32.62h31.35c18.02,0,32.62,14.61,32.62,32.62v35.3C456.71,281.4,435.08,303.03,408.41,303.03z"/>
		</g>
		<g>
			<path style="fill:#B83D5D;" d="M408.41,268.97c-4.37,0-7.93-3.56-7.93-7.93h1c0,3.82,3.11,6.93,6.93,6.93
				c3.82,0,6.93-3.11,6.93-6.93h1C416.34,265.42,412.78,268.97,408.41,268.97z"/>
		</g>
		<g>
			<path style="fill:#B83D5D;" d="M365.21,188.97c0,0-8.46-14.02,2.14-26.39C367.34,162.58,374.96,176.68,365.21,188.97z"/>
		</g>
		<g>
			<path style="fill:#B83D5D;" d="M369.51,185.64c0,0-11.78,11.38-26.2,3.81C343.31,189.45,355.35,178.88,369.51,185.64z"/>
		</g>
		<g>
			<path style="fill:#36364F;" d="M389.22,243.71c0,3.99-1.7,7.23-3.8,7.23s-3.8-3.24-3.8-7.23c0-3.99,1.7-7.23,3.8-7.23
				S389.22,239.71,389.22,243.71z"/>
		</g>
		<g>
			<path style="fill:#FFFFFF;" d="M383.46,264.59c-11.81,0-21.42-9.61-21.42-21.42s9.61-21.42,21.42-21.42s21.42,9.61,21.42,21.42
				S395.27,264.59,383.46,264.59z M383.46,225.75c-9.61,0-17.42,7.82-17.42,17.42c0,9.61,7.82,17.42,17.42,17.42
				c9.61,0,17.42-7.82,17.42-17.42C400.88,233.56,393.07,225.75,383.46,225.75z"/>
		</g>
		<g>
			<path style="fill:#36364F;" d="M435.18,243.71c0,3.99-1.7,7.23-3.8,7.23s-3.8-3.24-3.8-7.23c0-3.99,1.7-7.23,3.8-7.23
				S435.18,239.71,435.18,243.71z"/>
		</g>
		<g>
			<path style="fill:#FFFFFF;" d="M433.35,264.59c-11.81,0-21.42-9.61-21.42-21.42s9.61-21.42,21.42-21.42
				c11.81,0,21.42,9.61,21.42,21.42S445.16,264.59,433.35,264.59z M433.35,225.75c-9.61,0-17.42,7.82-17.42,17.42
				c0,9.61,7.82,17.42,17.42,17.42s17.42-7.82,17.42-17.42C450.77,233.56,442.96,225.75,433.35,225.75z"/>
		</g>
		<g>
			<path style="fill:#B83D5D;" d="M366.09,200.59c0,0,30.68-16.18,51.07-4.45c20.39,11.72,22.68,35.94,42.82,29.67
				c0,0,15.29-6.73-1.53-30.18s-28.33-28.04-50.23-22.94S372.08,181.76,366.09,200.59z"/>
		</g>
		<g>
			<path style="fill:#9A304F;" d="M364.92,200.36c0,0,10.13-13.43,24.31-16.98c14.18-3.55,29.86,13.89,29.86,13.89
				S382.76,192.09,364.92,200.36z"/>
		</g>
		<g>
			<path style="fill:#B83D5D;" d="M360.18,217.25c0,0,3.42,24.93,0,40.14C360.18,257.39,355.19,218.74,360.18,217.25z"/>
		</g>
		<g>
			<path style="fill:#B83D5D;" d="M456.35,217.25c0,0-3.42,24.93,0,40.14C456.35,257.39,461.35,218.74,456.35,217.25z"/>
		</g>
		<g>
			<path style="fill:#B83D5D;" d="M394.08,215.31c-5.27-2.52-14.64-5.29-23.33,0.89c-1.46,1.04-0.9,3.33,0.86,3.63
				c2.79,0.48,6.78,0.98,11.31,0.95c3.52-0.02,7.68-0.89,10.79-1.69C395.54,218.63,395.79,216.12,394.08,215.31z"/>
		</g>
		<g>
			<path style="fill:#B83D5D;" d="M444.98,215.31c-5.27-2.52-14.64-5.29-23.33,0.89c-1.46,1.04-0.9,3.33,0.86,3.63
				c2.79,0.48,6.78,0.98,11.31,0.95c3.52-0.02,7.68-0.89,10.79-1.69C446.43,218.63,446.68,216.12,444.98,215.31z"/>
		</g>
		<g>
			<g>
				<g>
					<path style="fill:#C33E5D;" d="M424.74,278.49c-0.5,0.89-1.09,1.83-1.9,2.76c-2.58,3.11-6.97,6.09-14.48,6.23l-0.01,0.03
						l-0.55-0.01l-0.02-0.04c-7.04-0.14-11.38-2.79-14-5.71c-1.01-1.1-1.78-2.26-2.34-3.31c-1.25-2.4-1.58-4.29-1.58-4.29
						l36.47,0.07C426.34,274.22,426.03,276.1,424.74,278.49z"/>
				</g>
			</g>
			<g>
				<path style="fill:#36364F;" d="M424.74,278.49c-0.5,0.89-1.09,1.83-1.9,2.76c-8.37-3.68-18.44-4.45-29.06,0.5
					c-1.01-1.1-1.78-2.26-2.34-3.31c-1.25-2.4-1.58-4.29-1.58-4.29l36.47,0.07C426.34,274.22,426.03,276.1,424.74,278.49z"/>
			</g>
		</g>
		<g>
			<path style="fill:#EBA154;" d="M563.43,472.85l-326.96,0.34c0,0,6.1-12.76,14.88-29.67c0.65-1.25,1.32-2.53,2-3.83
				c11.99-22.87,28.12-51.76,40.71-67.43c14.5-18.04,48.76-30.9,72.03-37.93c13.56-4.09,23.38-6.2,23.38-6.2h37.56
				c0,0,8.82,1.89,21.28,5.58c23.25,6.87,58.01,20.97,74.13,38.55c3.54,3.86,6.87,8.53,9.99,13.71
				C552.27,418.94,563.43,472.85,563.43,472.85z"/>
		</g>
		<g style="opacity:0.5;">
			<path style="fill:#D9751F;" d="M563.43,472.85l-326.96,0.34c0,0,6.1-12.76,14.88-29.67c163.16,47.96,249.14-30.64,268.76-51.92
				c3.17-3.44,7.57-5.5,12.24-5.63l0.08,0C552.27,418.94,563.43,472.85,563.43,472.85z"/>
		</g>
		<g>
			<rect x="403.28" y="244.47" style="fill:#FFFFFF;" width="10.26" height="4"/>
		</g>
		<g>
			<path style="fill:#E3B5AA;" d="M448.31,333.7c-40.47,44.53-82.22,0.63-82.22,0.63c13.56-4.1,23.38-6.21,23.38-6.21h37.56
				C427.03,328.12,435.85,330.02,448.31,333.7z"/>
		</g>
		<g>
			<g>
				<rect x="317.54" y="422.46" style="fill:#DC831E;" width="3" height="50.78"/>
			</g>
			<g>
				
					<rect x="310.72" y="435.09" transform="matrix(0.7869 -0.6171 0.6171 0.7869 -208.7794 287.7763)" style="fill:#DC831E;" width="3" height="22.1"/>
			</g>
		</g>
		<g>
			<g>
				<rect x="495.34" y="422.46" style="fill:#DC831E;" width="3" height="50.78"/>
			</g>
			<g>
				
					<rect x="493.09" y="445.61" transform="matrix(0.617 -0.7869 0.7869 0.617 -159.2584 566.968)" style="fill:#DC831E;" width="19.62" height="3"/>
			</g>
		</g>
		<g>
			<path style="fill:#DC831E;" d="M410.08,369.89c-5.42,0-11.08-0.71-16.95-2.13c-16.86-4.09-29.31-12.51-29.83-12.86l1.69-2.48
				c0.12,0.08,12.58,8.49,28.93,12.45c21.69,5.24,39.62,0.56,53.29-13.9l2.18,2.06C438.84,364.19,425.45,369.89,410.08,369.89z"/>
		</g>
		<g>
			<path style="fill:#FFFFFF;" d="M475.2,424.13l-5.99-8.66h-0.36h-6.26v8.66h-7.19v-31.07h13.45c2.75,0,5.14,0.46,7.17,1.38
				c2.03,0.92,3.59,2.22,4.68,3.91c1.09,1.69,1.64,3.68,1.64,5.99c0,2.31-0.55,4.3-1.66,5.97s-2.69,2.95-4.73,3.84l6.97,9.99H475.2z
				 M473.38,400.32c-1.12-0.93-2.77-1.4-4.93-1.4h-5.86v10.83h5.86c2.16,0,3.8-0.47,4.93-1.42c1.12-0.95,1.69-2.28,1.69-3.99
				C475.06,402.59,474.5,401.25,473.38,400.32z"/>
		</g>
		<g>
			<path style="fill:#B83D5D;" d="M364.93,179.59c11.27-47.36,124.15-42.15,103.15,50.06c-6.29,27.62-52.3-62.79-92.01-40.61
				c-2.97,1.66-6.67,1.23-9.15-1.09l0,0C364.64,185.82,364.2,182.63,364.93,179.59z"/>
		</g>
	</g>
	<g>
		<g>
			<g>
				<path style="fill:#80ABBD;" d="M426.93,472.88c-0.03,0.01-0.07,0.02-0.11,0.02c-0.27,0.03-0.55,0.04-0.83,0.04H207
					c-2.91,0-5.5-1.35-7.19-3.47c-1.26-1.57-2.01-3.57-2.01-5.74l-0.03-0.1l-34.1-96.35c-2.61-7.36,2.85-15.09,10.66-15.09h142.18
					c4.8,0,9.07,3.02,10.67,7.54l36.75,103.82c0.04,0.12,0.06,0.18,0.06,0.18h62.21C431.91,463.73,432.54,472.27,426.93,472.88z"/>
			</g>
			<g>
				
					<ellipse transform="matrix(0.9456 -0.3252 0.3252 0.9456 -121.713 103.2589)" style="fill:#FFFFFF;" cx="248.03" cy="415.71" rx="16.49" ry="20.02"/>
			</g>
			<g>
				<path style="fill:#4B7195;" d="M426.2,463.73h-62.21c0,0-0.02-0.06-0.05-0.18l-36.76-103.82c-1.6-4.52-5.87-7.53-10.67-7.53
					h-4.75c0,0,10.62,0.69,13.28,10.2c2.66,9.5,38.95,110.35,38.95,110.35l2.68,0.2h59.31c0.29,0,0.57-0.01,0.84-0.04
					C432.55,472.38,431.95,463.73,426.2,463.73z"/>
			</g>
		</g>
		<g style="opacity:0.4;">
			<path style="fill:#5A93A0;" d="M426.93,472.88c-0.03,0.01-0.07,0.02-0.11,0.02c-0.27,0.03-0.55,0.04-0.83,0.04H207
				c-2.91,0-5.5-1.35-7.19-3.47c129.44,11.12,116.7-117.28,116.7-117.28c4.8,0,9.07,3.02,10.67,7.54l36.75,103.82
				c0.04,0.12,0.06,0.18,0.06,0.18h61.23C425.88,466.76,426.46,469.81,426.93,472.88z"/>
		</g>
	</g>
	<g>
		<g>
			<g>
				<g>
					<g>
						<path style="fill:#4B7195;" d="M166.53,409.33v3.22c-5.83,0.67-7.25,5.59-7.25,11.59v1.98c0,6,1.43,10.92,7.25,11.59v3.21
							H55.14c-4.57,0-8.27-3.7-8.27-8.27v-15.03c0-4.57,3.7-8.29,8.27-8.29H166.53z"/>
					</g>
					<g>
						<path style="fill:#FFFFFF;" d="M164.8,434.42c0.67,1.58-0.56,3.3-2.26,3.3l-106.45,0.08v-25.32l106.45,0.08
							c0.62,0,1.18,0.23,1.6,0.6c0.74,0.62,1.08,1.69,0.67,2.7c-0.88,2.11-0.85,5.04-0.85,8.29v1.98
							C163.95,429.38,163.91,432.31,164.8,434.42z"/>
					</g>
					<g style="opacity:0.4;">
						<path style="fill:#A3D5E6;" d="M164.13,413.16c-2.05,0.11-96.11,4.97-102.56,14.12c-1.75,2.48-3.73,3.86-5.49,4.14v-18.93
							l106.45,0.08C163.16,412.55,163.71,412.79,164.13,413.16z"/>
					</g>
				</g>
				<g>
					<path style="fill:#4B7195;" d="M61.57,440.93h-9.36c-2.95,0-5.34-2.39-5.34-5.34v-20.9c0-2.95,2.39-5.34,5.34-5.34h9.36V440.93
						z"/>
				</g>
				<g style="opacity:0.4;">
					<path style="fill:#A3D5E6;" d="M164.8,434.42c0.67,1.58-0.56,3.3-2.26,3.3l-21.25,0.02c16.88-1.92,15.83-15.79,15.83-15.79
						c0.19-0.67-13.34-8.8-13.11-9.41l18.53,0.02c0.62,0,1.18,0.23,1.6,0.6c0.74,0.62,1.08,1.69,0.67,2.7
						c-0.88,2.11-0.85,5.04-0.85,8.29v1.98C163.95,429.38,163.91,432.31,164.8,434.42z"/>
				</g>
			</g>
			<g>
				<g style="opacity:0.4;">
					<rect x="61.75" y="423.29" style="fill:#A3D5E6;" width="102.19" height="2.28"/>
				</g>
				<g style="opacity:0.4;">
					<rect x="61.75" y="418.15" style="fill:#A3D5E6;" width="102.19" height="2.28"/>
				</g>
				<g style="opacity:0.4;">
					<rect x="61.75" y="429.83" style="fill:#A3D5E6;" width="102.19" height="2.28"/>
				</g>
			</g>
			<g>
				<polygon style="fill:#C33E5D;" points="131.03,433.07 125.6,427.65 120.16,433.07 120.16,418.15 131.03,418.15 				"/>
			</g>
		</g>
		<g>
			<g>
				<g>
					<g>
						<path style="fill:#C33E5D;" d="M178.45,440.82v3.22c-5.83,0.67-7.25,5.59-7.25,11.59v1.98c0,6,1.43,10.92,7.25,11.59v3.21
							H67.06c-4.57,0-8.27-3.7-8.27-8.27v-15.03c0-4.57,3.7-8.29,8.27-8.29H178.45z"/>
					</g>
					<g>
						<path style="fill:#FFFFFF;" d="M176.71,465.9c0.67,1.58-0.56,3.3-2.26,3.3L68,469.28v-25.32l106.45,0.08
							c0.62,0,1.18,0.23,1.6,0.6c0.74,0.62,1.08,1.69,0.67,2.7c-0.88,2.11-0.85,5.04-0.85,8.29v1.98
							C175.86,460.87,175.83,463.8,176.71,465.9z"/>
					</g>
					<g style="opacity:0.4;">
						<path style="fill:#A3D5E6;" d="M176.05,444.64c-2.05,0.11-96.11,4.97-102.56,14.12c-1.75,2.48-3.73,3.86-5.49,4.14v-18.93
							l106.45,0.08C175.07,444.04,175.63,444.27,176.05,444.64z"/>
					</g>
				</g>
				<g>
					<path style="fill:#C33E5D;" d="M73.49,472.42h-9.36c-2.95,0-5.34-2.39-5.34-5.34v-20.9c0-2.95,2.39-5.34,5.34-5.34h9.36V472.42
						z"/>
				</g>
				<g style="opacity:0.4;">
					<path style="fill:#A3D5E6;" d="M176.71,465.9c0.67,1.58-0.56,3.3-2.26,3.3l-21.25,0.02c16.88-1.92,15.83-15.79,15.83-15.79
						c0.19-0.67-13.34-8.8-13.11-9.41l18.53,0.02c0.62,0,1.18,0.23,1.6,0.6c0.74,0.62,1.08,1.69,0.67,2.7
						c-0.88,2.11-0.85,5.04-0.85,8.29v1.98C175.86,460.87,175.83,463.8,176.71,465.9z"/>
				</g>
			</g>
			<g>
				<g style="opacity:0.4;">
					<rect x="73.67" y="454.77" style="fill:#A3D5E6;" width="102.19" height="2.28"/>
				</g>
				<g style="opacity:0.4;">
					<rect x="73.67" y="449.63" style="fill:#A3D5E6;" width="102.19" height="2.28"/>
				</g>
				<g style="opacity:0.4;">
					<rect x="73.67" y="461.31" style="fill:#A3D5E6;" width="102.19" height="2.28"/>
				</g>
			</g>
			<g>
				<polygon style="fill:#C33E5D;" points="164.68,466.54 158.94,460.81 153.2,466.54 153.2,450.78 164.68,450.78 				"/>
			</g>
		</g>
	</g>
	<g>
		<g>
			<path style="fill:#47547C;" d="M717.85,486.14v2.31c0,7.06-5.73,12.78-12.79,12.78H51.02c-5.95,0-10.95-4.06-12.38-9.55
				c0-0.01,0-0.02-0.01-0.03c-0.26-1.03-0.4-2.1-0.4-3.2v-2.31c0-7.06,5.72-12.78,12.79-12.78h654.04
				C712.12,473.36,717.85,479.08,717.85,486.14z"/>
		</g>
		<g style="opacity:0.5;">
			<path style="fill:#2B2B3F;" d="M717.85,486.14v2.31c0,7.06-5.73,12.78-12.79,12.78H51.02c-5.95,0-10.95-4.06-12.38-9.55
				c0-0.01,0-0.02-0.01-0.03c-0.27-2.05-0.4-3.2-0.4-3.2c366.75,12.78,666.83-15.09,666.83-15.09
				C712.12,473.36,717.85,479.08,717.85,486.14z"/>
		</g>
	</g>
	<g>
		<g>
			<path style="fill:#EBA154;" d="M701.54,135.73c0-0.08,0.01-0.16,0.01-0.24c0-0.08-0.01-0.16-0.01-0.23
				c1.2-0.55,2.4-1.19,3.59-1.96c1.27-0.87,2.56-1.88,3.76-3.04l-0.26-1.02c-0.25-1.16-0.7-2.27-1.1-3.38
				c-0.23-0.54-0.5-1.07-0.76-1.6c-0.24-0.55-0.53-1.06-0.85-1.56l-0.54-0.89c-1.63,0.01-3.29,0.22-4.8,0.5
				c-1.36,0.28-2.68,0.69-3.91,1.16l-0.33-0.33c0.46-1.24,0.87-2.55,1.15-3.91c0.29-1.51,0.5-3.16,0.51-4.8l-0.89-0.54
				c-0.5-0.32-1.02-0.61-1.56-0.85c-0.53-0.26-1.06-0.53-1.61-0.76c-1.11-0.41-2.22-0.85-3.37-1.1l-1.02-0.26
				c-1.15,1.2-2.16,2.48-3.04,3.76c-0.77,1.18-1.4,2.38-1.96,3.59c-0.07,0-0.16-0.02-0.23-0.02c-0.08,0-0.16,0.02-0.24,0.02
				c-0.54-1.21-1.19-2.41-1.96-3.59c-0.86-1.28-1.88-2.56-3.03-3.76l-1.02,0.26c-1.17,0.25-2.27,0.7-3.38,1.1
				c-0.54,0.23-1.07,0.5-1.61,0.76c-0.54,0.24-1.05,0.53-1.56,0.85l-0.89,0.54c0.02,1.63,0.23,3.29,0.51,4.8
				c0.28,1.36,0.69,2.67,1.16,3.91c-0.11,0.11-0.23,0.22-0.33,0.33c-1.24-0.47-2.55-0.87-3.91-1.16c-1.51-0.28-3.17-0.49-4.8-0.5
				l-0.55,0.89c-0.31,0.5-0.6,1.01-0.85,1.56c-0.25,0.53-0.52,1.06-0.75,1.6c-0.42,1.11-0.85,2.23-1.1,3.38l-0.26,1.02
				c1.2,1.16,2.48,2.16,3.76,3.04c1.18,0.77,2.38,1.4,3.58,1.96c0,0.07-0.01,0.15-0.01,0.23c0,0.08,0.01,0.16,0.01,0.24
				c-1.2,0.54-2.4,1.19-3.58,1.96c-1.28,0.86-2.56,1.88-3.76,3.03l0.26,1.02c0.25,1.16,0.69,2.27,1.1,3.38
				c0.23,0.54,0.5,1.07,0.75,1.61c0.25,0.54,0.54,1.05,0.85,1.55l0.55,0.9c1.62-0.01,3.29-0.22,4.8-0.5
				c1.36-0.28,2.67-0.69,3.91-1.16c0.1,0.11,0.22,0.23,0.33,0.33c-0.47,1.24-0.87,2.55-1.16,3.91c-0.28,1.51-0.49,3.17-0.51,4.8
				l0.89,0.55c0.51,0.31,1.02,0.6,1.56,0.84c0.54,0.26,1.07,0.53,1.61,0.76c1.11,0.42,2.22,0.85,3.38,1.1l1.02,0.26
				c1.14-1.2,2.16-2.48,3.03-3.76c0.77-1.18,1.42-2.38,1.96-3.59c0.08,0.01,0.16,0.02,0.24,0.02c0.07,0,0.16-0.01,0.23-0.02
				c0.55,1.21,1.19,2.41,1.96,3.59c0.87,1.28,1.88,2.56,3.04,3.76l1.02-0.26c1.16-0.25,2.26-0.69,3.37-1.1
				c0.55-0.23,1.08-0.5,1.61-0.76c0.54-0.24,1.06-0.53,1.56-0.84l0.89-0.55c-0.01-1.62-0.22-3.29-0.51-4.8
				c-0.27-1.36-0.69-2.67-1.15-3.91c0.11-0.1,0.22-0.22,0.33-0.33c1.23,0.47,2.55,0.87,3.91,1.16c1.51,0.28,3.16,0.49,4.8,0.5
				l0.54-0.9c0.32-0.5,0.61-1.01,0.85-1.55c0.26-0.54,0.53-1.07,0.76-1.61c0.41-1.11,0.85-2.23,1.1-3.38l0.26-1.02
				c-1.2-1.14-2.49-2.16-3.76-3.03C703.94,136.92,702.74,136.27,701.54,135.73z M684.3,143.74c-4.56,0-8.25-3.69-8.25-8.25
				c0-4.56,3.69-8.25,8.25-8.25c4.56,0,8.25,3.69,8.25,8.25C692.55,140.05,688.85,143.74,684.3,143.74z"/>
		</g>
		<g>
			<path style="fill:#FD783D;" d="M618.42,203.57h-4v-1h4V203.57z M610.42,203.57h-4v-1h4V203.57z M605.45,200.54h-1v-4h1V200.54z
				 M605.45,192.54h-1v-4h1V192.54z M605.45,184.54h-1v-4h1V184.54z M605.45,176.54h-1v-4h1V176.54z M605.45,168.54h-1v-4h1V168.54z
				 M605.45,160.54h-1v-4h1V160.54z M605.45,152.54h-1v-4h1V152.54z M660.64,148.73h-4v-1h4V148.73z M652.64,148.73h-4v-1h4V148.73z
				 M644.64,148.73h-4v-1h4V148.73z M636.64,148.73h-4v-1h4V148.73z M628.64,148.73h-4v-1h4V148.73z M620.64,148.73h-4v-1h4V148.73z
				 M612.64,148.73h-4v-1h4V148.73z"/>
		</g>
		<g>
			<g>
				<rect x="621.74" y="232.42" style="fill:#FFFFFF;" width="30.61" height="5.47"/>
			</g>
			<g>
				<rect x="621.74" y="242.55" style="fill:#FFFFFF;" width="47.07" height="5.47"/>
			</g>
			<g>
				<rect x="621.74" y="252.67" style="fill:#FFFFFF;" width="16.03" height="5.47"/>
			</g>
			<g>
				<rect x="644.31" y="252.67" style="fill:#EBA154;" width="16.03" height="5.47"/>
			</g>
			<g>
				<rect x="666.08" y="252.67" style="fill:#EBA154;" width="23.02" height="5.47"/>
			</g>
			<g>
				<rect x="675.12" y="242.55" style="fill:#EBA154;" width="13.98" height="5.47"/>
			</g>
			<g>
				<rect x="658.49" y="232.42" style="fill:#EBA154;" width="30.61" height="5.47"/>
			</g>
		</g>
		<g>
			<rect x="699.29" y="196.99" style="fill:#FFFFFF;" width="1.02" height="60.98"/>
		</g>
	</g>
	<g>
		<g>
			<rect x="622.21" y="199.23" style="fill:#FFFFFF;" width="31.48" height="5.63"/>
		</g>
		<g>
			<rect x="622.21" y="209.64" style="fill:#FFFFFF;" width="48.4" height="5.63"/>
		</g>
		<g>
			<rect x="622.21" y="220.05" style="fill:#FFFFFF;" width="16.48" height="5.63"/>
		</g>
		<g>
			<rect x="645.43" y="220.05" style="fill:#EBA154;" width="16.48" height="5.63"/>
		</g>
		<g>
			<rect x="667.81" y="220.05" style="fill:#EBA154;" width="23.67" height="5.63"/>
		</g>
		<g>
			<rect x="677.11" y="209.64" style="fill:#EBA154;" width="14.38" height="5.63"/>
		</g>
		<g>
			<rect x="660" y="199.23" style="fill:#EBA154;" width="31.48" height="5.63"/>
		</g>
	</g>
	<g>
		<g>
			<g>
				<rect x="492.11" y="94.37" style="fill:#49496B;" width="90.59" height="178.02"/>
			</g>
			<g>
				<rect x="502.43" y="132.23" style="fill:#FFFFFF;" width="68.02" height="7.22"/>
			</g>
			<g>
				<rect x="502.43" y="148.23" style="fill:#FFFFFF;" width="45.02" height="7.22"/>
			</g>
			<g>
				<rect x="554.14" y="148.23" style="fill:#EBA154;" width="16.31" height="7.22"/>
			</g>
			<g>
				<rect x="528.3" y="164.22" style="fill:#EBA154;" width="42.15" height="7.22"/>
			</g>
			<g>
				<rect x="502.43" y="164.22" style="fill:#FFFFFF;" width="19.74" height="7.22"/>
			</g>
			<g>
				<rect x="502.43" y="180.22" style="fill:#FFFFFF;" width="35.95" height="7.22"/>
			</g>
			<g>
				<rect x="543.92" y="180.22" style="fill:#EBA154;" width="26.53" height="7.22"/>
			</g>
			<g>
				<rect x="522.17" y="196.22" style="fill:#EBA154;" width="48.28" height="7.22"/>
			</g>
			<g>
				<rect x="502.43" y="196.22" style="fill:#FFFFFF;" width="14.59" height="7.22"/>
			</g>
			<g>
				<rect x="502.43" y="212.21" style="fill:#FFFFFF;" width="29.19" height="7.22"/>
			</g>
			<g>
				<rect x="536.44" y="212.21" style="fill:#EBA154;" width="34.01" height="7.22"/>
			</g>
			<g>
				<g>
					<g>
						<path style="fill:#EBA154;" d="M568.44,254.84v2.03l-7.44,2.83v-1.95l5.21-1.89l-5.21-1.91v-1.94L568.44,254.84z"/>
					</g>
				</g>
				<g>
					<g>
						<path style="fill:#EBA154;" d="M547.28,252.01v1.94l-5.21,1.91l5.21,1.89v1.95l-7.44-2.83v-2.03L547.28,252.01z"/>
					</g>
				</g>
				<g>
					<g>
						<path style="fill:#EBA154;" d="M556.08,246.53h2.33l-5.53,15.78h-2.33L556.08,246.53z"/>
					</g>
				</g>
			</g>
			<g>
				<g>
					<g>
						<path style="fill:#EBA154;" d="M534.26,115.92v2.66l-9.76,3.71v-2.56l6.83-2.48l-6.83-2.5v-2.54L534.26,115.92z"/>
					</g>
				</g>
				<g>
					<g>
						<path style="fill:#EBA154;" d="M516.32,112.21v2.54l-6.83,2.5l6.83,2.48v2.56l-9.76-3.71v-2.66L516.32,112.21z"/>
					</g>
				</g>
			</g>
		</g>
		<g>
			<path style="fill:#FFFFFF;" d="M498.1,70.25v2.21h5.38v3.28h-5.38v4.13h-4.35v-12.9h10.48v3.28H498.1z"/>
			<path style="fill:#FFFFFF;" d="M505.49,66.19h4.17v13.67h-4.17V66.19z"/>
			<path style="fill:#FFFFFF;" d="M522.52,69.79v10.08h-3.96v-0.96c-0.37,0.38-0.8,0.67-1.29,0.86c-0.49,0.19-1.01,0.29-1.57,0.29
				c-1.28,0-2.3-0.39-3.08-1.17c-0.77-0.78-1.16-1.96-1.16-3.53v-5.56h4.16v4.85c0,0.69,0.11,1.18,0.33,1.47
				c0.22,0.29,0.55,0.44,0.98,0.44c0.41,0,0.74-0.16,1.01-0.49c0.27-0.33,0.41-0.84,0.41-1.54v-4.74H522.52z"/>
			<path style="fill:#FFFFFF;" d="M531.78,79.52c-0.63,0.36-1.48,0.53-2.56,0.53c-1.41,0-2.5-0.34-3.26-1.02s-1.14-1.7-1.14-3.07
				v-2.58h-1.38v-3.04h1.38v-2.82h4.17v2.82h2.06v3.04h-2.06v2.54c0,0.31,0.08,0.55,0.24,0.72c0.16,0.17,0.37,0.26,0.63,0.26
				c0.36,0,0.67-0.09,0.94-0.28L531.78,79.52z"/>
			<path style="fill:#FFFFFF;" d="M540.08,79.52c-0.63,0.36-1.48,0.53-2.56,0.53c-1.41,0-2.5-0.34-3.26-1.02s-1.14-1.7-1.14-3.07
				v-2.58h-1.38v-3.04h1.38v-2.82h4.17v2.82h2.06v3.04h-2.06v2.54c0,0.31,0.08,0.55,0.24,0.72c0.16,0.17,0.37,0.26,0.63,0.26
				c0.36,0,0.67-0.09,0.94-0.28L540.08,79.52z"/>
			<path style="fill:#FFFFFF;" d="M551.52,75.79h-7c0.15,0.38,0.39,0.67,0.74,0.88c0.34,0.2,0.77,0.3,1.29,0.3
				c0.44,0,0.81-0.06,1.12-0.17c0.3-0.11,0.63-0.3,0.99-0.57l2.17,2.19c-0.98,1.08-2.45,1.62-4.4,1.62c-1.22,0-2.29-0.22-3.21-0.67
				c-0.92-0.45-1.63-1.07-2.14-1.87c-0.5-0.8-0.76-1.7-0.76-2.69c0-1.01,0.25-1.91,0.75-2.7c0.5-0.79,1.18-1.41,2.05-1.85
				c0.87-0.44,1.84-0.66,2.92-0.66c1.02,0,1.95,0.2,2.79,0.61c0.84,0.41,1.51,1,2.01,1.79s0.75,1.73,0.75,2.82
				C551.57,74.88,551.56,75.2,551.52,75.79z M545,72.79c-0.28,0.23-0.47,0.56-0.55,0.99h3.24c-0.09-0.42-0.27-0.75-0.55-0.99
				c-0.28-0.24-0.64-0.36-1.07-0.36C545.63,72.44,545.28,72.56,545,72.79z"/>
			<path style="fill:#FFFFFF;" d="M560.11,69.6v3.69c-0.33-0.05-0.64-0.07-0.92-0.07c-1.43,0-2.14,0.72-2.14,2.17v4.48h-4.17V69.79
				h3.96v1.09C557.58,70.03,558.67,69.6,560.11,69.6z"/>
		</g>
	</g>
	<g>
		<g>
			<g>
				<g>
					<path style="fill:#64648E;" d="M72.92,276.75c-1.88-1.84-4.05-3.34-6.41-4.42c-0.04-0.02-0.09-0.04-0.13-0.06
						c-3.32-1.5-6.98-2.22-10.68-2.01c-2.53,0.13-5.08,0.7-7.54,1.74c-0.15,0.06-0.31,0.13-0.46,0.2
						c-4.41,1.97-7.89,5.18-10.21,9.03c-3.7,6.16-4.45,13.96-1.3,21.01c5.11,11.46,18.59,16.62,30.04,11.51
						c10.5-4.68,15.71-16.4,12.58-27.14c-0.28-0.98-0.64-1.95-1.07-2.9C76.55,281.02,74.9,278.68,72.92,276.75z M63.4,307.38
						c-7.95,3.54-17.3-0.04-20.84-7.99c-2.11-4.73-1.69-9.95,0.66-14.15c0.02-0.03,0.03-0.06,0.05-0.1c1.6-2.82,4.09-5.18,7.27-6.6
						c0.6-0.27,1.2-0.49,1.82-0.68c0.06-0.02,0.13-0.04,0.19-0.06c3.16-0.92,6.43-0.81,9.41,0.19c0.01,0,0.02,0.01,0.04,0.01
						c2.55,0.86,4.88,2.36,6.72,4.41c1.08,1.19,1.98,2.57,2.67,4.12c0.43,0.96,0.75,1.94,0.97,2.93
						C74,296.66,70.39,304.26,63.4,307.38z"/>
				</g>
			</g>
			<g>
				<path style="fill:#EBA154;" d="M66.51,272.33c2.35,1.08,4.53,2.57,6.41,4.42c1.98,1.94,3.63,4.28,4.83,6.96
					c0.43,0.95,0.78,1.92,1.07,2.9l-6.45,2.86c-0.22-0.99-0.55-1.97-0.97-2.93c-0.69-1.54-1.6-2.92-2.67-4.12
					c-1.84-2.05-4.17-3.55-6.72-4.41L61.96,278l0,0l4.42-5.74"/>
			</g>
			<g>
				<line style="fill:#EBA154;" x1="66.51" y1="272.33" x2="61.99" y2="278.01"/>
			</g>
			<g>
				<path style="fill:#B83D5D;" d="M61.99,278.01L61.96,278c-2.98-1-6.25-1.11-9.41-0.19c-0.06,0.02-0.13,0.04-0.19,0.06l-4.19-5.88
					c2.46-1.03,5.01-1.6,7.54-1.74c3.7-0.2,7.36,0.51,10.68,2.01"/>
			</g>
		</g>
		<g>
			<g>
				<rect x="58.28" y="315.71" style="fill:#FD783D;" width="1" height="2"/>
			</g>
			<g>
				<path style="fill:#FD783D;" d="M59.28,348.33h-1v-3.83h1V348.33z M59.28,340.68h-1v-3.83h1V340.68z M59.28,333.02h-1v-3.83h1
					V333.02z M59.28,325.37h-1v-3.83h1V325.37z"/>
			</g>
			<g>
				<polygon style="fill:#FD783D;" points="60.78,354.66 58.28,354.66 58.28,352.16 59.28,352.16 59.28,353.66 60.78,353.66 				"/>
			</g>
			<g>
				<path style="fill:#FD783D;" d="M118.4,354.66h-4.12v-1h4.12V354.66z M110.17,354.66h-4.12v-1h4.12V354.66z M101.94,354.66h-4.12
					v-1h4.12V354.66z M93.71,354.66h-4.12v-1h4.12V354.66z M85.48,354.66h-4.12v-1h4.12V354.66z M77.25,354.66h-4.12v-1h4.12V354.66
					z M69.02,354.66H64.9v-1h4.12V354.66z"/>
			</g>
			<g>
				<polygon style="fill:#FD783D;" points="125.02,354.66 122.52,354.66 122.52,353.66 124.02,353.66 124.02,352.16 125.02,352.16 
									"/>
			</g>
			<g>
				<path style="fill:#FD783D;" d="M125.02,348.27h-1v-3.89h1V348.27z M125.02,340.48h-1v-3.9h1V340.48z M125.02,332.69h-1v-3.89h1
					V332.69z M125.02,324.9h-1V321h1V324.9z"/>
			</g>
			<g>
				<rect x="124.02" y="315.11" style="fill:#FD783D;" width="1" height="2"/>
			</g>
		</g>
		<g>
			<g>
				<rect x="100.53" y="83.3" style="fill:#49496B;" width="192.85" height="229.92"/>
			</g>
			<g>
				<rect x="100.53" y="72.1" style="fill:#64648E;" width="192.85" height="29.18"/>
			</g>
			<g>
				<g>
					<g>
						<path style="fill:#EBA154;" d="M271.06,297.4v1.89l-6.93,2.64v-1.82l4.85-1.76l-4.85-1.78v-1.81L271.06,297.4z"/>
					</g>
				</g>
				<g>
					<g>
						<path style="fill:#EBA154;" d="M251.34,294.76v1.81l-4.85,1.78l4.85,1.76v1.82l-6.93-2.64v-1.89L251.34,294.76z"/>
					</g>
				</g>
				<g>
					<path style="fill:#EBA154;" d="M259.54,289.65h2.17l-5.15,14.71h-2.17L259.54,289.65z"/>
				</g>
			</g>
			<g>
				<g>
					<g>
						<path style="fill:#EBA154;" d="M146.22,119.88v2.36l-8.65,3.29v-2.27l6.05-2.2l-6.05-2.22v-2.25L146.22,119.88z"/>
					</g>
				</g>
				<g>
					<g>
						<path style="fill:#EBA154;" d="M130.32,116.59v2.25l-6.05,2.22l6.05,2.2v2.27l-8.65-3.29v-2.36L130.32,116.59z"/>
					</g>
				</g>
			</g>
			<g>
				<path style="fill:#FFFFFF;" d="M113.38,83.18h4.4c1.05,0,1.98,0.2,2.79,0.6s1.44,0.97,1.88,1.7s0.67,1.58,0.67,2.55
					c0,0.97-0.22,1.82-0.67,2.55s-1.08,1.29-1.88,1.7c-0.81,0.4-1.74,0.6-2.79,0.6h-4.4V83.18z M117.67,91.03
					c0.97,0,1.74-0.27,2.32-0.81c0.58-0.54,0.87-1.27,0.87-2.19s-0.29-1.65-0.87-2.19s-1.35-0.81-2.32-0.81h-2.05v6.01H117.67z"/>
				<path style="fill:#FFFFFF;" d="M132.32,91.07v1.8h-7.5v-9.69h7.32v1.8h-5.09v2.1h4.5v1.74h-4.5v2.24H132.32z"/>
				<path style="fill:#FFFFFF;" d="M143.28,83.18l-4.19,9.69h-2.21l-4.18-9.69h2.42l2.95,6.92l2.99-6.92H143.28z"/>
				<path style="fill:#FFFFFF;" d="M151.59,91.07v1.8h-7.5v-9.69h7.32v1.8h-5.09v2.1h4.5v1.74h-4.5v2.24H151.59z"/>
				<path style="fill:#FFFFFF;" d="M153.37,83.18h2.24v7.86h4.86v1.83h-7.1V83.18z"/>
				<path style="fill:#FFFFFF;" d="M163.54,92.39c-0.81-0.43-1.44-1.03-1.9-1.79c-0.46-0.76-0.69-1.62-0.69-2.57
					s0.23-1.81,0.69-2.57c0.46-0.76,1.09-1.36,1.9-1.79c0.81-0.43,1.71-0.65,2.72-0.65c1.01,0,1.91,0.22,2.71,0.65
					c0.8,0.43,1.43,1.03,1.9,1.79c0.46,0.76,0.69,1.62,0.69,2.57s-0.23,1.81-0.69,2.57c-0.46,0.76-1.09,1.36-1.9,1.79
					c-0.8,0.43-1.71,0.65-2.71,0.65C165.25,93.04,164.35,92.82,163.54,92.39z M167.81,90.73c0.46-0.26,0.82-0.63,1.09-1.1
					c0.26-0.47,0.39-1.01,0.39-1.61s-0.13-1.14-0.39-1.61c-0.26-0.47-0.63-0.84-1.09-1.1s-0.98-0.39-1.55-0.39
					c-0.57,0-1.09,0.13-1.55,0.39s-0.82,0.63-1.09,1.1c-0.26,0.47-0.39,1.01-0.39,1.61s0.13,1.14,0.39,1.61
					c0.26,0.47,0.63,0.84,1.09,1.1c0.46,0.26,0.98,0.39,1.55,0.39C166.83,91.13,167.35,91,167.81,90.73z"/>
				<path style="fill:#FFFFFF;" d="M179.68,83.61c0.63,0.29,1.12,0.69,1.46,1.22c0.34,0.53,0.51,1.15,0.51,1.87
					c0,0.71-0.17,1.33-0.51,1.86c-0.34,0.53-0.83,0.94-1.46,1.22c-0.63,0.28-1.38,0.42-2.24,0.42h-1.95v2.67h-2.24v-9.69h4.19
					C178.3,83.18,179.05,83.33,179.68,83.61z M178.86,87.94c0.35-0.29,0.53-0.7,0.53-1.24c0-0.54-0.18-0.96-0.53-1.25
					c-0.35-0.29-0.86-0.44-1.54-0.44h-1.83v3.36h1.83C178,88.37,178.51,88.23,178.86,87.94z"/>
				<path style="fill:#FFFFFF;" d="M192.06,92.87l-0.01-5.81l-2.85,4.79h-1.01l-2.84-4.67v5.69h-2.1v-9.69h1.85l3.63,6.02l3.57-6.02
					h1.84l0.03,9.69H192.06z"/>
				<path style="fill:#FFFFFF;" d="M203.97,91.07v1.8h-7.5v-9.69h7.32v1.8h-5.09v2.1h4.5v1.74h-4.5v2.24H203.97z"/>
				<path style="fill:#FFFFFF;" d="M214.64,83.18v9.69h-1.84l-4.83-5.88v5.88h-2.22v-9.69h1.85l4.82,5.88v-5.88H214.64z"/>
				<path style="fill:#FFFFFF;" d="M218.95,85.01h-3.1v-1.83h8.44v1.83h-3.1v7.86h-2.24V85.01z"/>
			</g>
			<g>
				<g>
					<g>
						<rect x="133.87" y="139.55" style="fill:#54B3CD;" width="56.69" height="10.38"/>
					</g>
					<g>
						<rect x="198.54" y="139.55" style="fill:#EBA154;" width="28.34" height="10.38"/>
					</g>
					<g>
						<rect x="233.41" y="139.55" style="fill:#FFFFFF;" width="39.04" height="10.38"/>
					</g>
					<g>
						<rect x="133.87" y="158.09" style="fill:#54B3CD;" width="26.46" height="10.38"/>
					</g>
					<g>
						<rect x="167.52" y="158.09" style="fill:#EBA154;" width="45.19" height="10.38"/>
					</g>
					<g>
						<rect x="220.08" y="158.09" style="fill:#FFFFFF;" width="52.37" height="10.38"/>
					</g>
					<g>
						<rect x="133.87" y="176.62" style="fill:#54B3CD;" width="34.83" height="10.38"/>
					</g>
					<g>
						<rect x="174.36" y="176.62" style="fill:#EBA154;" width="65.51" height="10.38"/>
					</g>
					<g>
						<rect x="246.89" y="176.62" style="fill:#FFFFFF;" width="25.56" height="10.38"/>
					</g>
					<g>
						<rect x="133.87" y="195.16" style="fill:#54B3CD;" width="43.91" height="10.38"/>
					</g>
					<g>
						<rect x="184.26" y="195.16" style="fill:#EBA154;" width="42.62" height="10.38"/>
					</g>
					<g>
						<rect x="233.41" y="195.16" style="fill:#FFFFFF;" width="39.04" height="10.38"/>
					</g>
					<g>
						<rect x="133.87" y="213.69" style="fill:#54B3CD;" width="19.26" height="10.38"/>
					</g>
					<g>
						<rect x="159.6" y="213.69" style="fill:#EBA154;" width="38.16" height="10.38"/>
					</g>
					<g>
						<rect x="203.7" y="213.69" style="fill:#FFFFFF;" width="68.75" height="10.38"/>
					</g>
					<g>
						<rect x="133.87" y="232.22" style="fill:#54B3CD;" width="55.07" height="10.38"/>
					</g>
					<g>
						<rect x="195.78" y="232.22" style="fill:#EBA154;" width="16.93" height="10.38"/>
					</g>
					<g>
						<rect x="220.08" y="232.22" style="fill:#FFFFFF;" width="52.37" height="10.38"/>
					</g>
					<g>
						<rect x="133.87" y="250.76" style="fill:#54B3CD;" width="71.71" height="10.38"/>
					</g>
					<g>
						<rect x="211.62" y="250.76" style="fill:#EBA154;" width="29.34" height="10.38"/>
					</g>
					<g>
						<rect x="246.89" y="250.76" style="fill:#FFFFFF;" width="25.56" height="10.38"/>
					</g>
					<g>
						<rect x="133.87" y="269.29" style="fill:#54B3CD;" width="21.96" height="10.38"/>
					</g>
					<g>
						<rect x="162.21" y="269.29" style="fill:#EBA154;" width="26.73" height="10.38"/>
					</g>
					<g>
						<rect x="195.78" y="269.29" style="fill:#FFFFFF;" width="76.67" height="10.38"/>
					</g>
				</g>
				<g>
					<rect x="280.03" y="139.55" style="fill:#FFFFFF;" width="2.11" height="140.12"/>
				</g>
				<g>
					<circle style="fill:#FFFFFF;" cx="116.04" cy="144.74" r="5.19"/>
				</g>
				<g>
					<circle style="fill:#FFFFFF;" cx="116.04" cy="163.28" r="5.19"/>
				</g>
				<g>
					<circle style="fill:#FFFFFF;" cx="116.04" cy="181.81" r="5.19"/>
				</g>
				<g>
					<circle style="fill:#FFFFFF;" cx="116.04" cy="200.35" r="5.19"/>
				</g>
				<g>
					<circle style="fill:#FFFFFF;" cx="116.04" cy="218.88" r="5.19"/>
				</g>
				<g>
					<circle style="fill:#FFFFFF;" cx="116.04" cy="237.41" r="5.19"/>
				</g>
				<g>
					<circle style="fill:#FFFFFF;" cx="116.04" cy="255.95" r="5.19"/>
				</g>
				<g>
					<circle style="fill:#FFFFFF;" cx="116.04" cy="274.48" r="5.19"/>
				</g>
			</g>
			<g>
				<path style="fill:#B83D5D;" d="M284.79,88.3c0,2.92-2.37,5.29-5.29,5.29c-2.92,0-5.29-2.37-5.29-5.29
					c0-2.92,2.37-5.29,5.29-5.29C282.42,83,284.79,85.37,284.79,88.3z"/>
			</g>
		</g>
		<g>
			<path style="fill:#FFFFFF;" d="M271.7,88.19c0,2.95-2.39,5.33-5.33,5.33c-2.95,0-5.33-2.39-5.33-5.33c0-2.95,2.39-5.33,5.33-5.33
				C269.31,82.86,271.7,85.24,271.7,88.19z"/>
		</g>
	</g>
	<g>
		<g>
			<rect x="319.04" y="110.33" style="fill:#47547C;" width="18.68" height="5.23"/>
		</g>
		<g>
			<rect x="319.04" y="101.01" style="fill:#64648E;" width="57.15" height="5.23"/>
		</g>
		<g>
			<g>
				<rect x="351.56" y="116.56" style="fill:#FD783D;" width="1" height="2"/>
			</g>
			<g>
				<path style="fill:#FD783D;" d="M352.56,132.07h-1v-3.38h1V132.07z M352.56,125.32h-1v-3.38h1V125.32z"/>
			</g>
			<g>
				<polygon style="fill:#FD783D;" points="354.06,137.94 351.56,137.94 351.56,135.44 352.56,135.44 352.56,136.94 354.06,136.94 
									"/>
			</g>
			<g>
				<path style="fill:#FD783D;" d="M415.01,137.94h-3.81v-1h3.81V137.94z M407.39,137.94h-3.81v-1h3.81V137.94z M399.77,137.94
					h-3.81v-1h3.81V137.94z M392.15,137.94h-3.81v-1h3.81V137.94z M384.54,137.94h-3.81v-1h3.81V137.94z M376.92,137.94h-3.81v-1
					h3.81V137.94z M369.3,137.94h-3.81v-1h3.81V137.94z M361.68,137.94h-3.81v-1h3.81V137.94z"/>
			</g>
			<g>
				<polygon style="fill:#FD783D;" points="421.32,137.94 418.82,137.94 418.82,136.94 420.32,136.94 420.32,135.44 421.32,135.44 
									"/>
			</g>
			<g>
				<rect x="420.32" y="127.33" style="fill:#FD783D;" width="1" height="4.06"/>
			</g>
			<g>
				<rect x="420.32" y="121.27" style="fill:#FD783D;" width="1" height="2"/>
			</g>
		</g>
		<g>
			<path style="fill:#FFFFFF;" d="M325.62,83.95h-1.18v3.24h-4.35v-12.9h6.21c1.19,0,2.23,0.2,3.11,0.59
				c0.88,0.39,1.57,0.96,2.05,1.7c0.48,0.74,0.72,1.6,0.72,2.58c0,0.92-0.21,1.73-0.63,2.41s-1.02,1.23-1.81,1.64l2.71,3.98h-4.64
				L325.62,83.95z M327.35,78.04c-0.29-0.26-0.74-0.4-1.33-0.4h-1.58v3.02h1.58c0.59,0,1.03-0.13,1.33-0.4
				c0.29-0.26,0.44-0.64,0.44-1.11S327.65,78.31,327.35,78.04z"/>
			<path style="fill:#FFFFFF;" d="M344.36,83.12h-7c0.15,0.38,0.39,0.67,0.74,0.88c0.34,0.2,0.77,0.3,1.29,0.3
				c0.44,0,0.81-0.06,1.12-0.17c0.3-0.11,0.63-0.3,0.99-0.57l2.17,2.19c-0.98,1.08-2.45,1.62-4.4,1.62c-1.22,0-2.29-0.22-3.21-0.67
				c-0.92-0.45-1.63-1.07-2.14-1.87c-0.5-0.8-0.76-1.7-0.76-2.69c0-1.01,0.25-1.91,0.75-2.7c0.5-0.79,1.18-1.41,2.05-1.85
				c0.87-0.44,1.84-0.66,2.92-0.66c1.02,0,1.95,0.2,2.79,0.61c0.84,0.41,1.51,1,2.01,1.79s0.75,1.73,0.75,2.82
				C344.42,82.2,344.4,82.53,344.36,83.12z M337.84,80.11c-0.28,0.23-0.47,0.56-0.55,0.99h3.24c-0.09-0.42-0.27-0.75-0.55-0.99
				c-0.28-0.24-0.64-0.36-1.07-0.36C338.48,79.76,338.12,79.88,337.84,80.11z"/>
			<path style="fill:#FFFFFF;" d="M354.02,78.12c0.93,0.79,1.4,2.01,1.4,3.66v5.42h-3.87v-1.33c-0.48,1.01-1.43,1.51-2.86,1.51
				c-0.8,0-1.48-0.14-2.04-0.41c-0.56-0.28-0.98-0.65-1.27-1.12c-0.29-0.47-0.43-1-0.43-1.59c0-1,0.38-1.75,1.14-2.27
				c0.76-0.52,1.92-0.77,3.46-0.77h1.68c-0.13-0.79-0.77-1.18-1.9-1.18c-0.46,0-0.92,0.07-1.38,0.21c-0.47,0.14-0.87,0.33-1.2,0.58
				l-1.33-2.75c0.58-0.36,1.27-0.64,2.09-0.84s1.63-0.3,2.44-0.3C351.73,76.93,353.08,77.32,354.02,78.12z M350.74,84.63
				c0.23-0.16,0.41-0.4,0.52-0.72v-0.7h-1.03c-0.85,0-1.27,0.28-1.27,0.85c0,0.23,0.09,0.43,0.27,0.58
				c0.18,0.15,0.42,0.23,0.73,0.23C350.24,84.87,350.5,84.79,350.74,84.63z"/>
			<path style="fill:#FFFFFF;" d="M359.75,86.71c-0.9-0.44-1.61-1.06-2.12-1.86c-0.51-0.8-0.76-1.7-0.76-2.71s0.25-1.91,0.76-2.7
				s1.22-1.41,2.12-1.85c0.9-0.44,1.93-0.66,3.07-0.66c1.23,0,2.28,0.26,3.15,0.79c0.87,0.53,1.47,1.26,1.81,2.19l-3.22,1.58
				c-0.39-0.88-0.98-1.33-1.75-1.33c-0.49,0-0.9,0.17-1.23,0.52c-0.33,0.34-0.49,0.83-0.49,1.46c0,0.64,0.16,1.13,0.49,1.47
				s0.73,0.52,1.23,0.52c0.77,0,1.36-0.44,1.75-1.33l3.22,1.58c-0.33,0.93-0.93,1.66-1.81,2.19c-0.87,0.53-1.92,0.79-3.15,0.79
				C361.68,87.37,360.66,87.15,359.75,86.71z"/>
			<path style="fill:#FFFFFF;" d="M376.35,86.84c-0.63,0.36-1.48,0.53-2.56,0.53c-1.41,0-2.5-0.34-3.26-1.02s-1.14-1.7-1.14-3.07
				V80.7H368v-3.04h1.38v-2.82h4.17v2.82h2.06v3.04h-2.06v2.54c0,0.31,0.08,0.55,0.24,0.72c0.16,0.17,0.37,0.26,0.63,0.26
				c0.36,0,0.67-0.09,0.94-0.28L376.35,86.84z"/>
		</g>
		<g>
			<g>
				<g>
					<path style="fill:#64648E;" d="M435.97,99.96c-0.19-0.68-0.44-1.35-0.74-2.01c-0.83-1.86-1.98-3.48-3.35-4.83
						c-1.3-1.28-2.82-2.31-4.45-3.06c-0.03-0.02-0.06-0.03-0.09-0.04c-2.3-1.05-4.84-1.54-7.41-1.4c-1.76,0.1-3.52,0.49-5.23,1.21
						c-0.1,0.05-0.21,0.09-0.32,0.14c-3.06,1.37-5.47,3.59-7.08,6.26c-2,3.32-2.75,7.32-1.97,11.23c0.22,1.13,0.58,2.25,1.06,3.34
						c3.54,7.95,12.9,11.53,20.84,7.98c4.85-2.16,8.07-6.48,9.05-11.33C436.78,105.02,436.7,102.45,435.97,99.96z M425.28,114.37
						c-5.51,2.46-12-0.03-14.46-5.54c-0.2-0.45-0.37-0.91-0.51-1.37c-0.85-2.89-0.44-5.93,0.96-8.44c0.01-0.02,0.02-0.05,0.03-0.07
						c1.11-1.96,2.83-3.59,5.04-4.58c0.42-0.18,0.83-0.34,1.26-0.46c0.04-0.02,0.08-0.03,0.13-0.04c2.19-0.65,4.46-0.56,6.53,0.12
						c0.01,0,0.01,0.01,0.02,0.01c1.77,0.6,3.39,1.64,4.66,3.06c0.75,0.83,1.37,1.78,1.85,2.86c0.3,0.67,0.52,1.35,0.68,2.03
						c0.42,1.86,0.34,3.75-0.18,5.51C430.44,110.43,428.32,113.01,425.28,114.37z"/>
				</g>
			</g>
			<g>
				<path style="fill:#B83D5D;" d="M436.29,107.45h-4.97c0.52-1.76,0.6-3.66,0.18-5.51c-0.16-0.68-0.38-1.36-0.68-2.03
					c-0.48-1.08-1.1-2.03-1.85-2.86c-1.28-1.42-2.89-2.46-4.66-3.06c-0.01,0-0.01-0.01-0.02-0.01c-2.07-0.69-4.34-0.77-6.53-0.12
					c-0.05,0.01-0.09,0.02-0.13,0.04c-0.43,0.12-0.85,0.28-1.26,0.46c-2.21,0.99-3.93,2.62-5.04,4.58
					c-0.01,0.02-0.03,0.05-0.03,0.07c-1.41,2.5-1.82,5.55-0.96,8.44h-4.97c-0.78-3.91-0.03-7.92,1.97-11.23
					c1.6-2.68,4.02-4.9,7.08-6.26c0.1-0.05,0.22-0.09,0.32-0.14c1.71-0.71,3.48-1.11,5.23-1.21c2.57-0.14,5.11,0.35,7.41,1.4
					c0.03,0.01,0.06,0.02,0.09,0.04c1.63,0.75,3.14,1.78,4.45,3.06c1.37,1.35,2.52,2.97,3.35,4.83c0.29,0.66,0.54,1.33,0.74,2.01
					C436.7,102.45,436.78,105.02,436.29,107.45z"/>
			</g>
		</g>
		<g>
			<rect x="341.47" y="110.33" style="fill:#64648E;" width="34.73" height="5.23"/>
		</g>
	</g>
	<g>
		<g>
			<path style="fill:#323247;" d="M57.32,85.97c-0.33,0.55-0.88,0.93-1.64,1.16c0.76,0.23,1.3,0.62,1.64,1.16s0.5,1.34,0.5,2.38
				v2.51c0,0.58,0.16,1.03,0.48,1.35c0.32,0.32,0.78,0.48,1.4,0.48h0.26v4.49h-1.95c-2.02,0-3.56-0.48-4.6-1.45
				c-1.04-0.97-1.56-2.36-1.56-4.17v-3.33c0-0.39-0.1-0.68-0.3-0.87c-0.2-0.19-0.48-0.29-0.83-0.29h-0.87v-4.49h0.87
				c0.35,0,0.63-0.1,0.83-0.29c0.2-0.19,0.3-0.48,0.3-0.87V80.4c0-1.81,0.52-3.2,1.56-4.17c1.04-0.97,2.57-1.45,4.6-1.45h1.95v4.49
				H59.7c-0.62,0-1.08,0.16-1.4,0.48s-0.48,0.77-0.48,1.35v2.51C57.83,84.63,57.66,85.43,57.32,85.97z"/>
			<path style="fill:#323247;" d="M78.53,84.89v4.49h-0.87c-0.35,0-0.63,0.1-0.83,0.29c-0.2,0.19-0.3,0.48-0.3,0.87v3.33
				c0,1.81-0.52,3.2-1.56,4.17c-1.04,0.97-2.57,1.45-4.6,1.45h-1.95V95h0.26c0.62,0,1.08-0.16,1.4-0.48
				c0.32-0.32,0.48-0.77,0.48-1.35v-2.51c0-1.04,0.17-1.83,0.5-2.38c0.33-0.55,0.88-0.93,1.64-1.16c-0.76-0.23-1.3-0.62-1.64-1.16
				c-0.33-0.55-0.5-1.34-0.5-2.38v-2.51c0-0.58-0.16-1.03-0.48-1.35c-0.32-0.32-0.78-0.48-1.4-0.48h-0.26v-4.49h1.95
				c2.02,0,3.56,0.48,4.6,1.45c1.04,0.97,1.56,2.36,1.56,4.17v3.33c0,0.39,0.1,0.68,0.3,0.87c0.2,0.19,0.48,0.29,0.83,0.29H78.53z"
				/>
		</g>
		<g>
			<g>
				<rect x="48.51" y="123.95" style="fill:#FFFFFF;" width="20.54" height="9.8"/>
			</g>
			<g>
				<rect x="48.51" y="141.07" style="fill:#FFFFFF;" width="20.54" height="9.8"/>
			</g>
			<g>
				<rect x="48.51" y="158.2" style="fill:#EBA154;" width="20.54" height="9.8"/>
			</g>
			<g>
				<rect x="48.51" y="175.32" style="fill:#EBA154;" width="20.54" height="9.8"/>
			</g>
			<g>
				<rect x="48.51" y="192.44" style="fill:#EBA154;" width="20.54" height="9.8"/>
			</g>
			<g>
				<rect x="48.51" y="209.57" style="fill:#EBA154;" width="20.54" height="9.8"/>
			</g>
			<g>
				<rect x="48.51" y="226.69" style="fill:#EBA154;" width="20.54" height="9.8"/>
			</g>
		</g>
	</g>
	<g>
		<g>
			<path style="fill:#323247;" d="M649.49,316.69c0-0.07,0.01-0.13,0.01-0.2c0-0.07-0.01-0.13-0.01-0.2
				c1.02-0.47,2.06-1.01,3.07-1.67c1.09-0.75,2.19-1.61,3.21-2.6l-0.22-0.87c-0.21-0.99-0.6-1.94-0.94-2.89
				c-0.2-0.46-0.43-0.92-0.65-1.37c-0.2-0.47-0.45-0.91-0.73-1.33l-0.46-0.77c-1.4,0.01-2.81,0.19-4.1,0.43
				c-1.17,0.24-2.3,0.59-3.35,0.99l-0.28-0.28c0.39-1.06,0.75-2.18,0.98-3.35c0.25-1.29,0.43-2.71,0.44-4.1l-0.77-0.46
				c-0.43-0.28-0.87-0.52-1.34-0.73c-0.45-0.22-0.91-0.45-1.38-0.65c-0.95-0.35-1.9-0.73-2.88-0.94l-0.87-0.22
				c-0.99,1.02-1.85,2.12-2.6,3.21c-0.66,1.01-1.2,2.04-1.67,3.07c-0.06,0-0.13-0.02-0.2-0.02c-0.07,0-0.13,0.02-0.2,0.02
				c-0.46-1.03-1.01-2.06-1.67-3.07c-0.74-1.09-1.61-2.19-2.59-3.21l-0.87,0.22c-1,0.21-1.94,0.6-2.89,0.94
				c-0.46,0.2-0.92,0.43-1.38,0.65c-0.46,0.2-0.9,0.45-1.34,0.73l-0.77,0.46c0.02,1.4,0.2,2.81,0.44,4.1
				c0.24,1.17,0.59,2.29,0.99,3.35c-0.1,0.1-0.2,0.19-0.28,0.28c-1.06-0.4-2.18-0.75-3.35-0.99c-1.29-0.24-2.71-0.42-4.1-0.43
				l-0.47,0.77c-0.27,0.43-0.52,0.86-0.73,1.33c-0.21,0.45-0.44,0.91-0.64,1.37c-0.36,0.95-0.73,1.9-0.94,2.89l-0.22,0.87
				c1.02,0.99,2.12,1.85,3.21,2.6c1.01,0.66,2.04,1.2,3.06,1.67c0,0.06-0.01,0.12-0.01,0.2c0,0.07,0.01,0.13,0.01,0.2
				c-1.02,0.46-2.06,1.01-3.06,1.67c-1.09,0.74-2.19,1.61-3.21,2.59l0.22,0.87c0.21,0.99,0.59,1.94,0.94,2.89
				c0.2,0.46,0.43,0.92,0.64,1.38c0.21,0.46,0.46,0.9,0.73,1.33l0.47,0.77c1.39-0.01,2.81-0.19,4.1-0.43
				c1.17-0.24,2.29-0.59,3.35-0.99c0.09,0.1,0.19,0.2,0.28,0.28c-0.4,1.06-0.75,2.18-0.99,3.35c-0.24,1.29-0.42,2.71-0.44,4.1
				l0.77,0.47c0.44,0.27,0.87,0.52,1.34,0.72c0.46,0.22,0.92,0.45,1.38,0.65c0.95,0.36,1.9,0.73,2.89,0.94l0.87,0.22
				c0.98-1.02,1.85-2.12,2.59-3.21c0.66-1.01,1.21-2.04,1.67-3.07c0.07,0.01,0.13,0.02,0.2,0.02c0.06,0,0.13-0.01,0.2-0.02
				c0.47,1.03,1.01,2.06,1.67,3.07c0.75,1.09,1.61,2.19,2.6,3.21l0.87-0.22c0.99-0.21,1.93-0.59,2.88-0.94
				c0.47-0.2,0.93-0.43,1.38-0.65c0.46-0.2,0.91-0.45,1.34-0.72l0.77-0.47c-0.01-1.39-0.19-2.81-0.44-4.1
				c-0.23-1.17-0.59-2.29-0.98-3.35c0.1-0.09,0.19-0.19,0.28-0.28c1.05,0.4,2.18,0.75,3.35,0.99c1.29,0.24,2.71,0.42,4.1,0.43
				l0.46-0.77c0.28-0.43,0.53-0.86,0.73-1.33c0.22-0.46,0.45-0.92,0.65-1.38c0.35-0.95,0.73-1.9,0.94-2.89l0.22-0.87
				c-1.02-0.98-2.13-1.85-3.21-2.59C651.55,317.7,650.51,317.15,649.49,316.69z M634.74,323.54c-3.9,0-7.06-3.16-7.06-7.06
				c0-3.9,3.16-7.06,7.06-7.06c3.9,0,7.06,3.16,7.06,7.06C641.8,320.38,638.64,323.54,634.74,323.54z"/>
		</g>
		<g>
			<g>
				<g>
					<rect x="575.32" y="290.48" style="fill:#B83D5D;" width="9.32" height="41.97"/>
				</g>
				<g>
					<rect x="561.58" y="308.97" style="fill:#64648E;" width="9.99" height="23.48"/>
				</g>
				<g>
					<rect x="547.74" y="316.48" style="fill:#FD783D;" width="9.99" height="15.96"/>
				</g>
			</g>
			<g>
				<g>
					<rect x="543.97" y="325.26" style="fill:#FD783D;" width="2" height="1"/>
				</g>
				<g>
					<rect x="533.83" y="325.26" style="fill:#FD783D;" width="5.07" height="1"/>
				</g>
				<g>
					<polygon style="fill:#FD783D;" points="527.26,327.76 526.26,327.76 526.26,325.26 528.76,325.26 528.76,326.26 527.26,326.26 
											"/>
				</g>
				<g>
					<path style="fill:#FD783D;" d="M527.26,357.69h-1v-3.74h1V357.69z M527.26,350.21h-1v-3.74h1V350.21z M527.26,342.72h-1v-3.74
						h1V342.72z M527.26,335.24h-1v-3.74h1V335.24z"/>
				</g>
				<g>
					<polygon style="fill:#FD783D;" points="528.76,363.93 526.26,363.93 526.26,361.43 527.26,361.43 527.26,362.93 528.76,362.93 
											"/>
				</g>
				<g>
					<path style="fill:#FD783D;" d="M542.34,363.93h-3.4v-1h3.4V363.93z M535.55,363.93h-3.4v-1h3.4V363.93z"/>
				</g>
				<g>
					<rect x="545.74" y="362.93" style="fill:#FD783D;" width="2" height="1"/>
				</g>
			</g>
			<g>
				<g>
					<rect x="550.9" y="361.56" style="fill:#FFFFFF;" width="26.43" height="4.72"/>
				</g>
				<g>
					<rect x="550.9" y="370.3" style="fill:#FFFFFF;" width="18.28" height="4.72"/>
				</g>
				<g>
					<rect x="550.9" y="379.04" style="fill:#FFFFFF;" width="23.14" height="4.72"/>
				</g>
				<g>
					<rect x="578.83" y="379.04" style="fill:#EBA154;" width="5.4" height="4.72"/>
				</g>
				<g>
					<rect x="589.18" y="379.04" style="fill:#EBA154;" width="19.87" height="4.72"/>
				</g>
				<g>
					<rect x="575.04" y="370.3" style="fill:#EBA154;" width="34.01" height="4.72"/>
				</g>
				<g>
					<rect x="582.63" y="361.56" style="fill:#EBA154;" width="26.43" height="4.72"/>
				</g>
			</g>
		</g>
		<g>
			<g>
				<rect x="682.28" y="313.92" style="fill:#B83D5D;" width="17.41" height="8.31"/>
			</g>
			<g>
				<rect x="682.28" y="328.44" style="fill:#B83D5D;" width="17.41" height="8.31"/>
			</g>
			<g>
				<rect x="682.28" y="342.96" style="fill:#B83D5D;" width="17.41" height="8.31"/>
			</g>
			<g>
				<rect x="682.28" y="357.48" style="fill:#B83D5D;" width="17.41" height="8.31"/>
			</g>
			<g>
				<rect x="682.28" y="372" style="fill:#FFFFFF;" width="17.41" height="8.31"/>
			</g>
			<g>
				<rect x="682.28" y="386.52" style="fill:#FFFFFF;" width="17.41" height="8.31"/>
			</g>
			<g>
				<rect x="682.28" y="401.04" style="fill:#FFFFFF;" width="17.41" height="8.31"/>
			</g>
		</g>
	</g>
	<g>
		<g>
			<g>
				<path style="fill:#0C8068;" d="M623.77,433.16c-6.51,0.49-11.96-1.06-16.51-3.88c-18.37-11.37-22.2-43.43-22.47-45.84
					c0.16,0.74,1.97,4.66,21.07,17.51c1.59,1.07,3.04,2.16,4.37,3.26c0,0,0.02,0.02,0.07,0.05
					C626.94,418.04,623.77,433.16,623.77,433.16z"/>
			</g>
			<g>
				<path style="fill:#0A6D53;" d="M620.85,430.31c-19.06-4.44-35.83-45.1-36.53-46.82l0.93-0.38c0.17,0.42,17.27,41.91,35.83,46.23
					L620.85,430.31z"/>
			</g>
			<g style="opacity:0.5;">
				<path style="fill:#0A6D53;" d="M623.77,433.16c-6.51,0.49-11.96-1.06-16.51-3.88c3.66-8.65,2.97-25.07,2.97-25.07
					s0.02,0.02,0.07,0.05C626.94,418.04,623.77,433.16,623.77,433.16z"/>
			</g>
		</g>
		<g>
			<g>
				<path style="fill:#0C8068;" d="M672.53,385.79c-0.07,0.45-0.33,2-0.84,4.29c0,0,0,0,0,0.01c-2.71,12.14-12.49,44.8-38.81,41.52
					c0,0-0.44-2.8,0.44-7c1.3-6.16,5.49-15.34,18.22-23.04C670.42,390.15,672.33,386.48,672.53,385.79z"/>
			</g>
			<g>
				<path style="fill:#0A6D53;" d="M634.89,430.99l-0.29-0.96c22.93-6.98,36.48-41.49,36.62-41.83l0.93,0.36
					C672.01,388.91,658.28,423.87,634.89,430.99z"/>
			</g>
			<g style="opacity:0.5;">
				<path style="fill:#0A6D53;" d="M671.68,390.08C671.68,390.08,671.68,390.08,671.68,390.08c-2.71,12.14-12.49,44.8-38.81,41.53
					c0,0-0.44-2.8,0.44-7h0.03C655.24,425.79,671.68,390.08,671.68,390.08z"/>
			</g>
		</g>
		<g>
			<g>
				<path style="fill:#159A7A;" d="M631.46,432.78c-0.65,1.13-10.26-2.86-14.59-14.42h0c-2.6-6.94-3.29-16.61,1-29.54
					c11.29-33.94,6.64-40.34,6.5-40.52c0.23,0.11,10.04,4.98,16.36,16.83c0,0,0.01,0.02,0.03,0.05
					C647.71,378.25,650.42,399.79,631.46,432.78z"/>
			</g>
			<g>
				<path style="fill:#0C8068;" d="M631.1,433.49c-0.1,0-0.2-0.02-0.31-0.06c-0.71-0.3-2.6-1.11,2.19-31.31
					c5.5-34.67-8.87-53.32-9.01-53.5l0.78-0.62c0.15,0.19,14.79,19.15,9.22,54.28c-4.31,27.16-3.04,29.97-2.75,30.25
					c-0.04-0.04-0.15-0.05-0.19-0.03l0.83,0.58C631.68,433.31,631.4,433.49,631.1,433.49z"/>
			</g>
			<g style="opacity:0.5;">
				<path style="fill:#0C8068;" d="M631.46,432.78c-0.65,1.13-10.26-2.86-14.59-14.42c24.23,6.88,23.86-53.22,23.86-53.22
					s0.01,0.02,0.03,0.05C647.71,378.25,650.42,399.79,631.46,432.78z"/>
			</g>
		</g>
		<g>
			<path style="fill:#0C8068;" d="M584.77,383.3c0,0,0,0.04,0.01,0.12C584.77,383.34,584.77,383.3,584.77,383.3z"/>
		</g>
		<g>
			<path style="fill:#EBA154;" d="M650.09,432.27v27.13c0,7.94-6.43,14.37-14.37,14.37h-12.76c-5.2,0-9.75-2.76-12.27-6.89h0
				c-1.33-2.18-2.09-4.74-2.09-7.48v-27.13H650.09z"/>
		</g>
		<g>
			<path style="fill:#EBA154;" d="M651.59,428.75h-44.51c-0.59,0-1.06,0.47-1.06,1.06v1.4c0,0.58,0.47,1.06,1.06,1.06h44.51
				c0.58,0,1.06-0.47,1.06-1.06v-1.4C652.65,429.23,652.18,428.75,651.59,428.75z"/>
		</g>
		<g>
			<path style="fill:#DC831E;" d="M650.09,432.27v27.13c0,7.94-6.43,14.37-14.37,14.37h-12.76c-5.2,0-9.75-2.76-12.27-6.89
				c30.39,9.55,36.99-12.8,35.82-21.67c-1.17-8.86-12.12-12.94-12.12-12.94H650.09z"/>
		</g>
	</g>
</g>
</svg>
