<?xml version="1.0" encoding="utf-8"?>
<!-- Generator: Adobe Illustrator 25.2.0, SVG Export Plug-In . SVG Version: 6.00 Build 0)  -->
<svg version="1.1" xmlns="http://www.w3.org/2000/svg" xmlns:xlink="http://www.w3.org/1999/xlink" x="0px" y="0px"
	 viewBox="0 0 800 600" style="enable-background:new 0 0 800 600;" xml:space="preserve">
<style type="text/css">
	.st0{fill:#FDDAB9;}
	.st1{fill:#414042;}
	.st2{fill:#FFFFFF;}
	.st3{fill:#58595B;}
	.st4{fill:#E6E7E8;}
	.st5{opacity:0.3;}
	.st6{opacity:0.5;}
	.st7{opacity:0.7;}
</style>
<g id="Layer_4">
</g>
<g id="Layer_2">
	<g>
		<g>
			<g>
				<path class="st0" d="M583.3,287.8c-3.7-0.1-7.1,1.6-9.4,4.2c-0.8-5.8-5.8-10.2-11.8-10.2c-3.6,0-6.9,1.6-9.1,4.2
					c-0.8-5.8-5.8-10.2-11.8-10.2l0,0c-3.6,0-6.7,1.6-8.9,4V200c0-6.1-4.7-11.2-10.8-11.4c-6.2-0.1-11.2,4.9-11.2,11v88.7L498,306.8
					c-6.6,9.8-6.6,22.7,0,32.5l9,13.4c2.3,3.4,3.5,7.3,3.5,11.4l0,68.3H595V300.1C595,293.6,589.9,288,583.3,287.8z"/>
			</g>
		</g>
		<g>
			<g>
				<rect x="501.9" y="394.5" class="st1" width="101.6" height="205.5"/>
			</g>
		</g>
		<g>
			<g>
				<rect x="505.8" y="379" class="st2" width="93.8" height="15.5"/>
			</g>
		</g>
		<g>
			<g>
				<rect x="511.3" y="394.5" class="st3" width="1" height="205.5"/>
			</g>
		</g>
		<g>
			<g>
				<rect x="523.1" y="394.5" class="st3" width="1" height="205.5"/>
			</g>
		</g>
		<g>
			<g>
				<rect x="534.9" y="394.5" class="st3" width="1" height="205.5"/>
			</g>
		</g>
		<g>
			<g>
				<rect x="546.7" y="394.5" class="st3" width="1" height="205.5"/>
			</g>
		</g>
		<g>
			<g>
				<rect x="558.5" y="394.5" class="st3" width="1" height="205.5"/>
			</g>
		</g>
		<g>
			<g>
				<rect x="570.3" y="394.5" class="st3" width="1" height="205.5"/>
			</g>
		</g>
		<g>
			<g>
				<rect x="582.1" y="394.5" class="st3" width="1" height="205.5"/>
			</g>
		</g>
		<g>
			<g>
				<rect x="593.9" y="394.5" class="st3" width="1" height="205.5"/>
			</g>
		</g>
		<g>
			<g>
				<circle class="st2" cx="582.6" cy="411.7" r="8.3"/>
			</g>
		</g>
		<g>
			<g>
				
					<ellipse transform="matrix(0.1606 -0.987 0.987 0.1606 57.229 942.2072)" class="st2" cx="582.6" cy="437.5" rx="8.3" ry="8.3"/>
			</g>
		</g>
		<g>
			<g>
				<polygon class="st4" points="510.5,329.3 510.5,288.3 504.9,296.6 				"/>
			</g>
		</g>
	</g>
	<g class="st5">
		<polygon class="st2" points="198.5,365.5 183.9,350.8 169.2,365.5 174.5,370.8 180.1,365.2 180.1,392.5 187.6,392.5 187.6,365.2 
			193.2,370.8 		"/>
	</g>
	<g class="st5">
		<polygon class="st2" points="474.4,182.4 459.8,167.8 445.1,182.4 450.4,187.7 456,182.2 456,209.5 463.5,209.5 463.5,182.2 
			469.1,187.7 		"/>
	</g>
	<g class="st5">
		<polygon class="st2" points="678.2,367.8 663.5,353.2 648.9,367.8 654.2,373.1 659.8,367.6 659.8,394.9 667.3,394.9 667.3,367.6 
			672.9,373.1 		"/>
	</g>
	<g class="st5">
		<polygon class="st2" points="750.6,108 735.9,93.3 721.2,108 726.6,113.3 732.1,107.7 732.1,135 739.7,135 739.7,107.7 
			745.2,113.3 		"/>
	</g>
	<g class="st5">
		<polygon class="st2" points="641.2,212.9 626.5,198.2 611.9,212.9 617.2,218.2 622.8,212.6 622.8,239.9 630.3,239.9 630.3,212.6 
			635.9,218.2 		"/>
	</g>
	<g class="st6">
		<polygon class="st2" points="761.9,261.9 735.9,235.9 709.9,261.9 719.3,271.4 729.2,261.5 729.2,309.9 742.6,309.9 742.6,261.5 
			752.5,271.4 		"/>
	</g>
	<g class="st6">
		<polygon class="st2" points="109.2,471.8 83.3,445.8 57.3,471.8 66.7,481.2 76.6,471.3 76.6,519.8 89.9,519.8 89.9,471.3 
			99.8,481.2 		"/>
	</g>
	<g class="st6">
		<polygon class="st2" points="447.8,487.3 421.8,461.3 395.8,487.3 405.2,496.7 415.1,486.9 415.1,535.3 428.4,535.3 428.4,486.9 
			438.3,496.7 		"/>
	</g>
	<g class="st6">
		<polygon class="st2" points="630.5,75.1 604.3,49.3 578.5,75.5 588,84.9 597.8,74.9 598.1,123.4 611.5,123.3 611.1,74.8 
			621.1,84.6 		"/>
	</g>
	<g class="st6">
		<polygon class="st2" points="381.7,338.8 355.7,312.8 329.7,338.8 339.2,348.2 349.1,338.4 349.1,386.8 362.4,386.8 362.4,338.4 
			372.3,348.2 		"/>
	</g>
	<g class="st7">
		<polygon class="st2" points="286.7,489.6 250,453 213.3,489.6 226.6,503 240.6,489 240.6,557.4 259.4,557.4 259.4,489 273.4,503 
					"/>
	</g>
	<g class="st7">
		<polygon class="st2" points="739.9,486.6 703.2,450 666.5,486.6 679.8,500 693.8,486 693.8,554.4 712.6,554.4 712.6,486 
			726.6,500 		"/>
	</g>
</g>
</svg>
