<?xml version="1.0" encoding="utf-8"?>
<!-- Generator: Adobe Illustrator 25.2.0, SVG Export Plug-In . SVG Version: 6.00 Build 0)  -->
<svg version="1.1" id="Layer_1" xmlns="http://www.w3.org/2000/svg" xmlns:xlink="http://www.w3.org/1999/xlink" x="0px" y="0px"
	 viewBox="0 0 360 288" style="enable-background:new 0 0 360 288;" xml:space="preserve">
<style type="text/css">
	.st0{fill:#FFFFFF;}
	.st1{opacity:0.4;}
	.st2{fill:#FFF8F7;}
	.st3{fill:#FFF1EF;}
	.st4{fill:#FFEAE8;}
	.st5{fill:#FFE3E0;}
	.st6{fill:#FFDCD8;}
	.st7{fill:#FFD5D0;}
	.st8{fill:#FFCEC9;}
	.st9{fill:#FFC7C1;}
	.st10{fill:#FFC0B9;}
	.st11{fill:#FFB9B1;}
	.st12{fill:#FFB2A9;}
	.st13{fill:#FFABA2;}
	.st14{fill:#FFA49A;}
	.st15{fill:#FF9D92;}
	.st16{fill:#FF968A;}
	.st17{fill:#FF9083;}
	.st18{fill:#FF897B;}
	.st19{fill:#FF8273;}
	.st20{fill:#FF7B6B;}
	.st21{fill:#FF7464;}
	.st22{fill:#FF6D5C;}
	.st23{fill:#FF6654;}
	.st24{fill:#FF5F4C;}
	.st25{fill:#FF5844;}
	.st26{fill:#FF513D;}
	.st27{fill:#FF4A35;}
	.st28{fill:#FF432D;}
	.st29{fill:#FF3C25;}
	.st30{fill:#FF351E;}
	.st31{fill:#FF2E16;}
	.st32{fill:#FF270E;}
</style>
<g>
	<rect x="-10.6" y="4.2" class="st0" width="360" height="288"/>
	<g>
		<g class="st1">
			<circle class="st0" cx="212.4" cy="104.9" r="47.5"/>
			<circle class="st2" cx="213.3" cy="104" r="47.5"/>
			<circle class="st3" cx="214.2" cy="103.1" r="47.5"/>
			<circle class="st4" cx="215.2" cy="102.1" r="47.5"/>
			<circle class="st5" cx="216.1" cy="101.2" r="47.5"/>
			<circle class="st6" cx="217" cy="100.3" r="47.5"/>
			<circle class="st7" cx="217.9" cy="99.4" r="47.5"/>
			<circle class="st8" cx="218.8" cy="98.4" r="47.5"/>
			<circle class="st9" cx="219.8" cy="97.5" r="47.5"/>
			<circle class="st10" cx="220.7" cy="96.6" r="47.5"/>
			
				<ellipse transform="matrix(0.7071 -0.7071 0.7071 0.7071 -2.7417 184.7282)" class="st11" cx="221.6" cy="95.7" rx="47.5" ry="47.5"/>
			
				<ellipse transform="matrix(0.7071 -0.7071 0.7071 0.7071 -1.8181 185.1108)" class="st12" cx="222.5" cy="94.8" rx="47.5" ry="47.5"/>
			
				<ellipse transform="matrix(0.7071 -0.7071 0.7071 0.7071 -0.8945 185.4934)" class="st13" cx="223.5" cy="93.8" rx="47.5" ry="47.5"/>
			
				<ellipse transform="matrix(0.7071 -0.7071 0.7071 0.7071 2.906655e-02 185.8759)" class="st14" cx="224.4" cy="92.9" rx="47.5" ry="47.5"/>
			
				<ellipse transform="matrix(0.7071 -0.7071 0.7071 0.7071 0.9527 186.2585)" class="st15" cx="225.3" cy="92" rx="47.5" ry="47.5"/>
			
				<ellipse transform="matrix(0.7071 -0.7071 0.7071 0.7071 1.8763 186.6411)" class="st16" cx="226.2" cy="91.1" rx="47.5" ry="47.5"/>
			
				<ellipse transform="matrix(0.7071 -0.7071 0.7071 0.7071 2.7999 187.0237)" class="st17" cx="227.2" cy="90.1" rx="47.5" ry="47.5"/>
			
				<ellipse transform="matrix(0.7071 -0.7071 0.7071 0.7071 3.7235 187.4062)" class="st18" cx="228.1" cy="89.2" rx="47.5" ry="47.5"/>
			
				<ellipse transform="matrix(0.7071 -0.7071 0.7071 0.7071 4.6471 187.7888)" class="st19" cx="229" cy="88.3" rx="47.5" ry="47.5"/>
			
				<ellipse transform="matrix(0.7071 -0.7071 0.7071 0.7071 5.5707 188.1714)" class="st20" cx="229.9" cy="87.4" rx="47.5" ry="47.5"/>
			
				<ellipse transform="matrix(0.7071 -0.7071 0.7071 0.7071 6.4943 188.5539)" class="st21" cx="230.9" cy="86.4" rx="47.5" ry="47.5"/>
			
				<ellipse transform="matrix(0.7071 -0.7071 0.7071 0.7071 7.4179 188.9365)" class="st22" cx="231.8" cy="85.5" rx="47.5" ry="47.5"/>
			
				<ellipse transform="matrix(0.7071 -0.7071 0.7071 0.7071 8.3415 189.3191)" class="st23" cx="232.7" cy="84.6" rx="47.5" ry="47.5"/>
			
				<ellipse transform="matrix(0.7071 -0.7071 0.7071 0.7071 9.2651 189.7016)" class="st24" cx="233.6" cy="83.7" rx="47.5" ry="47.5"/>
			
				<ellipse transform="matrix(0.7071 -0.7071 0.7071 0.7071 10.1887 190.0842)" class="st25" cx="234.5" cy="82.7" rx="47.5" ry="47.5"/>
			
				<ellipse transform="matrix(0.7071 -0.7071 0.7071 0.7071 11.1123 190.4668)" class="st26" cx="235.5" cy="81.8" rx="47.5" ry="47.5"/>
			
				<ellipse transform="matrix(0.7071 -0.7071 0.7071 0.7071 12.0359 190.8493)" class="st27" cx="236.4" cy="80.9" rx="47.5" ry="47.5"/>
			
				<ellipse transform="matrix(0.7071 -0.7071 0.7071 0.7071 12.9595 191.2319)" class="st28" cx="237.3" cy="80" rx="47.5" ry="47.5"/>
			
				<ellipse transform="matrix(0.7071 -0.7071 0.7071 0.7071 13.8831 191.6145)" class="st29" cx="238.2" cy="79" rx="47.5" ry="47.5"/>
			
				<ellipse transform="matrix(0.7071 -0.7071 0.7071 0.7071 14.8067 191.9971)" class="st30" cx="239.2" cy="78.1" rx="47.5" ry="47.5"/>
			
				<ellipse transform="matrix(0.7071 -0.7071 0.7071 0.7071 15.7303 192.3796)" class="st31" cx="240.1" cy="77.2" rx="47.5" ry="47.5"/>
			
				<ellipse transform="matrix(0.7071 -0.7071 0.7071 0.7071 16.6539 192.7622)" class="st32" cx="241" cy="76.3" rx="47.5" ry="47.5"/>
		</g>
		<g>
			
				<ellipse transform="matrix(0.7071 -0.7071 0.7071 0.7071 16.6539 192.7622)" class="st32" cx="241" cy="76.3" rx="47.5" ry="47.5"/>
			<path class="st0" d="M241,124.8c-26.8,0-48.5-21.8-48.5-48.5c0-26.8,21.8-48.5,48.5-48.5c26.8,0,48.5,21.8,48.5,48.5
				C289.5,103,267.8,124.8,241,124.8z M241,29.8c-25.6,0-46.5,20.9-46.5,46.5c0,25.6,20.9,46.5,46.5,46.5s46.5-20.9,46.5-46.5
				C287.5,50.6,266.7,29.8,241,29.8z"/>
		</g>
		<g>
			<path d="M236.1,129.4c-22.6,0-42.5-16-47.2-38.1c-0.1-0.4,0.2-0.8,0.6-0.9c0.4-0.1,0.8,0.2,0.9,0.6c4.6,21.4,23.8,37,45.7,37
				c5,0,9.8-0.8,14.5-2.3c0.4-0.1,0.8,0.1,0.9,0.5c0.1,0.4-0.1,0.8-0.5,0.9C246.3,128.6,241.2,129.4,236.1,129.4z M268,117.2
				c-0.2,0-0.4-0.1-0.6-0.2c-0.3-0.3-0.3-0.8,0.1-1.1c9.8-8.9,15.5-21.5,15.5-34.7V81c0-0.4,0.3-0.8,0.8-0.8s0.8,0.3,0.8,0.8v0.2
				c0,13.6-5.8,26.7-16,35.9C268.3,117.1,268.1,117.2,268,117.2z M188.6,82c-0.4,0-0.8-0.3-0.8-0.7v-0.1c0-13.6,5.8-26.6,15.9-35.8
				c0.3-0.3,0.8-0.3,1.1,0.1c0.3,0.3,0.3,0.8-0.1,1.1c-9.8,8.9-15.4,21.5-15.4,34.7C189.4,81.6,189,82,188.6,82z M282.6,71.8
				c-0.3,0-0.7-0.2-0.7-0.6c-4.6-21.4-23.8-36.9-45.7-36.9c-5,0-9.9,0.8-14.6,2.3c-0.4,0.1-0.8-0.1-0.9-0.5
				c-0.1-0.4,0.1-0.8,0.5-0.9c4.8-1.6,9.9-2.4,15.1-2.4c22.6,0,42.4,16,47.2,38c0.1,0.4-0.2,0.8-0.6,0.9
				C282.7,71.8,282.6,71.8,282.6,71.8z"/>
		</g>
		<g>
			<polygon class="st0" points="263.8,62.6 256.5,55.4 240.7,71.2 224.8,55.4 217.6,62.6 233.4,78.5 217.6,94.3 224.8,101.6 
				240.7,85.8 256.5,101.6 263.8,94.3 248,78.5 			"/>
			<path class="st0" d="M256.5,103.3l-15.8-15.8l-15.8,15.8l-9-9l15.8-15.8l-15.8-15.8l9-9l15.8,15.8l15.8-15.8l9,9l-15.8,15.8
				l15.8,15.8L256.5,103.3z M240.7,84l15.8,15.8l5.6-5.6l-15.8-15.8l15.8-15.8l-5.6-5.6l-15.8,15.8l-15.8-15.8l-5.6,5.6l15.8,15.8
				l-15.8,15.8l5.6,5.6L240.7,84z"/>
		</g>
	</g>
</g>
</svg>
