<?xml version="1.0" encoding="utf-8"?>
<!-- Generator: Adobe Illustrator 25.2.0, SVG Export Plug-In . SVG Version: 6.00 Build 0)  -->
<svg version="1.1" id="Layer_1" xmlns="http://www.w3.org/2000/svg" xmlns:xlink="http://www.w3.org/1999/xlink" x="0px" y="0px"
	 viewBox="0 0 3000 2000" style="enable-background:new 0 0 3000 2000;" xml:space="preserve">
<style type="text/css">
	.st0{clip-path:url(#SVGID_2_);fill:#FFFFFF;}
	.st1{clip-path:url(#SVGID_2_);}
	.st2{fill:#F9B384;}
	.st3{fill:#E28B6D;}
	.st4{fill:#102048;}
	.st5{fill:#708CD5;}
</style>
<g>
	<defs>
		<rect id="SVGID_1_" width="3000" height="2000"/>
	</defs>
	<clipPath id="SVGID_2_">
		<use xlink:href="#SVGID_1_"  style="overflow:visible;"/>
	</clipPath>
	<rect class="st0" width="3000" height="2000"/>
	<g class="st1">
		<g>
			<path class="st2" d="M2992,2119.2L2544.9,1855c-67-1.1-121.2-17-156.6-54.7c-92.4,28.6-163.3-36.7-115.9-82.1
				c-10.3-25.1-10.5-47.7,7.3-66.1c-13.6-18-16-41.7-0.5-59.2c2.2-73.2,65.1-116.2,179.3-84.4c-20.4-88.5-34.2-172.7,40.2-199.7
				c20.9,96.9,41.6,197.3,66.7,231c42.6,31.3,80.5,61.2,102.1,86.7l485.2,212.9L2992,2119.2z"/>
		</g>
		<g>
			<path class="st3" d="M2404.4,1641.7c-15.4,0-30.8-3.2-44.9-9.6l-81.4-36.7l2.2-5l81.4,36.7c20.8,9.4,44.5,11.6,66.7,6.3
				c21.4-5.1,29.5-14.7,32.1-18.6c3.6-5.6,3.5-18.9-2-28.3c-3-5.1-8.9-11.2-19.7-10.5l-35.4,3l-44.2-38.2l3.6-4.1l42.5,36.7
				l33.2-2.9c10.7-0.7,19.4,4,24.8,13.1c6.8,11.6,6.5,26.9,1.9,34c-2.9,4.5-12.1,15.4-35.4,21
				C2421.4,1640.7,2412.9,1641.7,2404.4,1641.7z"/>
		</g>
		<g>
			<path class="st3" d="M2396,1699.5c-41.4,0-114.3-43.1-117.7-45l2.8-4.7c0.9,0.5,87.1,51.4,123.4,43.4
				c37.5-8.2,56.7-32.1,59.1-39.3c1.8-5.6-5.1-18.3-10-24.9l4.4-3.2c1.4,2,14,19.7,10.7,29.8c-3.6,10.9-25.8,34.8-63.1,43
				C2402.7,1699.2,2399.4,1699.5,2396,1699.5z"/>
		</g>
		<g>
			<path class="st3" d="M2379.5,1750.6c-52.5,0-105.9-28.7-108.4-30l2.6-4.8c0.7,0.4,65.7,35.3,121,28.4c56.6-7,71.5-14.7,76.5-24.2
				c2.3-4.4,2.2-14.8-4.2-22.8c-4.8-6.1-14.4-12.3-33.1-7.7l-1.3-5.3c22.7-5.7,34,3.6,38.7,9.6c7.3,9.3,8.1,22.2,4.7,28.7
				c-6.1,11.6-21.3,19.8-80.7,27.1C2390.2,1750.3,2384.8,1750.6,2379.5,1750.6z"/>
		</g>
		<g>
			<path class="st3" d="M2389.2,1802.9l-1.9-5.1c23.6-9,52.2-30.6,52.3-43.9c0-1.5,0-5.9-8.4-9.2l2-5.1c9.8,3.9,11.9,9.9,11.9,14.3
				C2445,1771.1,2412.5,1794,2389.2,1802.9z"/>
		</g>
		<g>
			<path class="st3" d="M2499.2,1729c-31.8-10.2-35.9-68.2-38.7-106.6l-0.4-6l5.4-0.4l0.4,6c2.5,34.7,6.6,92.7,34.9,101.8
				L2499.2,1729z"/>
		</g>
	</g>
	<g class="st1">
		<g>
			<path class="st4" d="M519.1,1887.8c0,0,62-94-154-276l26,236L519.1,1887.8z"/>
		</g>
		<g>
			<g>
				<path class="st2" d="M143.4,2051.7l437.3-258.4c65.5-1,118.5-16.6,153.2-53.5c90.4,28,159.8-35.9,113.3-80.3
					c10-24.5,10.2-46.7-7.1-64.7c13.3-17.6,15.6-40.8,0.5-57.9c-2.2-71.5-63.6-113.7-175.4-82.6c19.9-86.5,33.5-168.9-39.3-195.3
					c-20.5,94.7-40.7,192.9-65.3,225.9c-41.6,30.6-78.7,59.9-99.9,84.8l-474.6,208.2L143.4,2051.7z"/>
			</g>
			<g>
				<path class="st3" d="M718.1,1584.6c-8.3,0-16.7-1-24.8-2.9c-22.8-5.5-31.8-16.2-34.6-20.5c-4.5-6.9-4.8-21.9,1.9-33.2
					c5.2-8.9,13.8-13.5,24.2-12.8l32.5,2.8l41.6-35.9l3.5,4l-43.3,37.3l-34.7-3c-10.5-0.7-16.3,5.2-19.2,10.2
					c-5.4,9.2-5.5,22.2-2,27.7c2.5,3.8,10.4,13.2,31.4,18.2c21.8,5.2,44.9,3,65.3-6.1l79.6-35.9l2.2,4.8l-79.6,35.9
					C748.2,1581.5,733.1,1584.6,718.1,1584.6z"/>
			</g>
			<g>
				<path class="st3" d="M726.3,1641.1c-3.4,0-6.6-0.3-9.5-0.9c-36.5-8-58.2-31.3-61.7-42c-3.2-9.9,9.1-27.2,10.5-29.1l4.3,3.1
					c-4.7,6.5-11.6,18.8-9.7,24.4c2.3,7.1,21.1,30.4,57.8,38.5c35.5,7.8,119.8-42,120.7-42.5l2.7,4.6
					C838.1,1599,766.8,1641.1,726.3,1641.1z"/>
			</g>
			<g>
				<path class="st3" d="M742.4,1691.2c-5.2,0-10.4-0.3-15.5-0.9c-58.1-7.2-72.9-15.1-78.9-26.5c-3.4-6.4-2.6-19,4.6-28.1
					c4.6-5.9,15.7-14.9,37.9-9.4l-1.3,5.2c-18.3-4.6-27.7,1.6-32.4,7.5c-6.2,7.9-6.3,18-4.1,22.3c4.9,9.3,19.5,16.9,74.8,23.7
					c54.1,6.7,117.7-27.5,118.4-27.8l2.5,4.7C846,1663.1,793.7,1691.2,742.4,1691.2z"/>
			</g>
			<g>
				<path class="st3" d="M732.8,1742.3c-22.7-8.7-54.5-31.1-54.6-47.9c0-4.3,2-10.2,11.6-14l2,4.9c-8.3,3.3-8.2,7.6-8.2,9
					c0.1,13,28.1,34.1,51.2,42.9L732.8,1742.3z"/>
			</g>
			<g>
				<path class="st3" d="M625.3,1670.1l-1.6-5.1c27.7-8.9,31.7-65.6,34.1-99.5l0.4-5.9l5.3,0.4l-0.4,5.9
					C660.5,1603.4,656.5,1660.1,625.3,1670.1z"/>
			</g>
		</g>
		<g>
			<path class="st5" d="M365.1,1611.8c20.6,94.6,70,196,154,276l-492,288l-264-360L365.1,1611.8z"/>
		</g>
	</g>
</g>
</svg>
